<?xml version="1.0" encoding="utf-8"?>
<!-- Generator: Adobe Illustrator 27.1.0, SVG Export Plug-In . SVG Version: 6.00 Build 0)  -->
<svg version="1.1" id="Capa_1" xmlns:v="https://svgstorm.com"
	 xmlns="http://www.w3.org/2000/svg" xmlns:xlink="http://www.w3.org/1999/xlink" x="0px" y="0px" viewBox="0 0 730 730"
	 style="enable-background:new 0 0 730 730;" xml:space="preserve">
<style type="text/css">
	.st0{fill:none;stroke:#FDFEFE;stroke-width:0.3;}
	.st1{fill:none;stroke:#49AEAC;stroke-width:0.3;}
	.st2{fill:none;stroke:#A9DFCE;stroke-width:0.3;}
	.st3{fill:none;stroke:#E5FDF9;stroke-width:0.3;}
	.st4{fill:none;stroke:#89E5BF;stroke-width:0.3;}
	.st5{fill:none;stroke:#B9DBE7;stroke-width:0.3;}
	.st6{fill:none;stroke:#247D9C;stroke-width:0.3;}
	.st7{fill:none;stroke:#A7CCD3;stroke-width:0.3;}
	.st8{fill:none;stroke:#2889A0;stroke-width:0.3;}
	.st9{fill:none;stroke:#DBF2FB;stroke-width:0.3;}
	.st10{fill:none;stroke:#2C8FA1;stroke-width:0.3;}
	.st11{fill:none;stroke:#79D5BB;stroke-width:0.3;}
	.st12{fill:none;stroke:#D2F5EA;stroke-width:0.3;}
	.st13{fill:none;stroke:#56BDAD;stroke-width:0.3;}
	.st14{fill:none;stroke:#88E3C1;stroke-width:0.3;}
	.st15{fill:none;stroke:#24819C;stroke-width:0.3;}
	.st16{fill:none;stroke:#1C6A91;stroke-width:0.3;}
	.st17{fill:none;stroke:#4DB1AC;stroke-width:0.3;}
	.st18{fill:none;stroke:#CAEDE5;stroke-width:0.3;}
	.st19{fill:none;stroke:#7FDEBE;stroke-width:0.3;}
	.st20{fill:none;stroke:#206F94;stroke-width:0.3;}
	.st21{fill:none;stroke:#6FCFBB;stroke-width:0.3;}
	.st22{fill:none;stroke:#1E688F;stroke-width:0.3;}
	.st23{fill:none;stroke:#8FADBA;stroke-width:0.3;}
	.st24{fill:none;stroke:#65C3B8;stroke-width:0.3;}
	.st25{fill:none;stroke:#184A75;stroke-width:0.3;}
	.st26{fill:none;stroke:#175985;stroke-width:0.3;}
	.st27{fill:none;stroke:#59BBB5;stroke-width:0.3;}
	.st28{fill:none;stroke:#8FA6B6;stroke-width:0.3;}
	.st29{fill:none;stroke:#17517E;stroke-width:0.3;}
	.st30{fill:none;stroke:#B2D7DC;stroke-width:0.3;}
	.st31{fill:none;stroke:#609EA2;stroke-width:0.3;}
	.st32{fill:none;stroke:#1B618E;stroke-width:0.3;}
	.st33{fill:none;stroke:#54ACB1;stroke-width:0.3;}
	.st34{fill:none;stroke:#65C6B9;stroke-width:0.3;}
	.st35{fill:none;stroke:#94AEBF;stroke-width:0.3;}
	.st36{fill:none;stroke:#CDECEC;stroke-width:0.3;}
	.st37{fill:none;stroke:#3E9FA7;stroke-width:0.3;}
	.st38{fill:none;stroke:#4B888F;stroke-width:0.3;}
	.st39{fill:none;stroke:#7BA8AD;stroke-width:0.3;}
	.st40{fill:none;stroke:#40A1AF;stroke-width:0.3;}
	.st41{fill:none;stroke:#C3E4E7;stroke-width:0.3;}
	.st42{fill:none;stroke:#A4C3CB;stroke-width:0.3;}
	.st43{fill:none;stroke:#318EA4;stroke-width:0.3;}
	.st44{fill:none;stroke:#C2E6E7;stroke-width:0.3;}
	.st45{fill:none;stroke:#24789D;stroke-width:0.3;}
	.st46{fill:none;stroke:#5ABBB4;stroke-width:0.3;}
	.st47{fill:none;stroke:#3390AA;stroke-width:0.3;}
	.st48{fill:none;stroke:#C0E0E6;stroke-width:0.3;}
	.st49{fill:none;stroke:#48ABB1;stroke-width:0.3;}
	.st50{fill:none;stroke:#4DAFB6;stroke-width:0.3;}
	.st51{fill:none;stroke:#3592A9;stroke-width:0.3;}
	.st52{fill:none;stroke:#237CA5;stroke-width:0.3;}
	.st53{fill:none;stroke:#134570;stroke-width:0.3;}
	.st54{fill:none;stroke:#9ABBC6;stroke-width:0.3;}
	.st55{fill:none;stroke:#1D6990;stroke-width:0.3;}
	.st56{fill:none;stroke:#399CB0;stroke-width:0.3;}
	.st57{fill:none;stroke:#B7D6DF;stroke-width:0.3;}
	.st58{fill:none;stroke:#D0EBF2;stroke-width:0.3;}
	.st59{fill:none;stroke:#3B798F;stroke-width:0.3;}
	.st60{fill:none;stroke:#C9E7EE;stroke-width:0.3;}
	.st61{fill:none;stroke:#3894AA;stroke-width:0.3;}
	.st62{fill:none;stroke:#1E6892;stroke-width:0.3;}
	.st63{fill:none;stroke:#257CA1;stroke-width:0.3;}
	.st64{fill:none;stroke:#144471;stroke-width:0.3;}
	.st65{fill:none;stroke:#175682;stroke-width:0.3;}
	.st66{fill:none;stroke:#20658E;stroke-width:0.3;}
	.st67{fill:none;stroke:#46A5AF;stroke-width:0.3;}
	.st68{fill:none;stroke:#2A8BAC;stroke-width:0.3;}
	.st69{fill:none;stroke:#C9E3EC;stroke-width:0.3;}
	.st70{fill:none;stroke:#50B4B2;stroke-width:0.3;}
	.st71{fill:none;stroke:#CBECEA;stroke-width:0.3;}
	.st72{fill:none;stroke:#22759C;stroke-width:0.3;}
	.st73{fill:none;stroke:#185685;stroke-width:0.3;}
	.st74{fill:none;stroke:#6CCBBA;stroke-width:0.3;}
	.st75{fill:none;stroke:#2B86A2;stroke-width:0.3;}
	.st76{fill:none;stroke:#CAEBEB;stroke-width:0.3;}
	.st77{fill:none;stroke:#85E0C0;stroke-width:0.3;}
	.st78{fill:none;stroke:#3A98A7;stroke-width:0.3;}
	.st79{fill:none;stroke:#5284A0;stroke-width:0.3;}
	.st80{fill:#49AEAC;}
	.st81{fill:#A9DFCE;}
	.st82{fill:#E5FDF9;}
	.st83{fill:#89E5BF;}
	.st84{fill:#B9DBE7;}
	.st85{fill:#247D9C;}
	.st86{fill:#A7CCD3;}
	.st87{fill:#2889A0;}
	.st88{fill:#DBF2FB;}
	.st89{fill:#2C8FA1;}
	.st90{fill:#79D5BB;}
	.st91{fill:#D2F5EA;}
	.st92{fill:#56BDAD;}
	.st93{fill:#88E3C1;}
	.st94{fill:#24819C;}
	.st95{fill:#1C6A91;}
	.st96{fill:#4DB1AC;}
	.st97{fill:#CAEDE5;}
	.st98{fill:#7FDEBE;}
	.st99{fill:#206F94;}
	.st100{fill:#6FCFBB;}
	.st101{fill:#1E688F;}
	.st102{fill:#8FADBA;}
	.st103{fill:#65C3B8;}
	.st104{fill:#184A75;}
	.st105{fill:#175985;}
	.st106{fill:#59BBB5;}
	.st107{fill:#8FA6B6;}
	.st108{fill:#17517E;}
	.st109{fill:#B2D7DC;}
	.st110{fill:#609EA2;}
	.st111{fill:#1B618E;}
	.st112{fill:#54ACB1;}
	.st113{fill:#65C6B9;}
	.st114{fill:#94AEBF;}
	.st115{fill:#CDECEC;}
	.st116{fill:#3E9FA7;}
	.st117{fill:#4B888F;}
	.st118{fill:#7BA8AD;}
	.st119{fill:#40A1AF;}
	.st120{fill:#C3E4E7;}
	.st121{fill:#A4C3CB;}
	.st122{fill:#318EA4;}
	.st123{fill:#C2E6E7;}
	.st124{fill:#24789D;}
	.st125{fill:#5ABBB4;}
	.st126{fill:#3390AA;}
	.st127{fill:#C0E0E6;}
	.st128{fill:#48ABB1;}
	.st129{fill:#4DAFB6;}
	.st130{fill:#3592A9;}
	.st131{fill:#237CA5;}
	.st132{fill:#134570;}
	.st133{fill:#9ABBC6;}
	.st134{fill:#1D6990;}
	.st135{fill:#399CB0;}
	.st136{fill:#B7D6DF;}
	.st137{fill:#D0EBF2;}
	.st138{fill:#3B798F;}
	.st139{fill:#C9E7EE;}
	.st140{fill:#3894AA;}
	.st141{fill:#1E6892;}
	.st142{fill:#257CA1;}
	.st143{fill:#144471;}
	.st144{fill:#175682;}
	.st145{fill:#20658E;}
	.st146{fill:#46A5AF;}
	.st147{fill:#2A8BAC;}
	.st148{fill:#C9E3EC;}
	.st149{fill:#50B4B2;}
	.st150{fill:#CBECEA;}
	.st151{fill:#22759C;}
	.st152{fill:#185685;}
	.st153{fill:#6CCBBA;}
	.st154{fill:#2B86A2;}
	.st155{fill:#CAEBEB;}
	.st156{fill:#85E0C0;}
	.st157{fill:#3A98A7;}
	.st158{fill:#5284A0;}
</style>
<g>
	<path class="st0" d="M0,730h730V0H0V730 M476,33c-0.2,0.1,0,1,0,1c5,6.8-0.6,20.1,1,29s-0.7,20.4,0,30s-0.3,21.1,0,31s-0.1,20,0,30
		s0,20.9,0,31s0.2,19.9,0,30s0.4,21.1,0,31s1,20.3,0,30s2.6,21.5-1,30c0,0.5,0,1.5,0,2c0,5.8-9.1,13.1-13,17
		c-5.4,5.4-10.4,12.2-15,18c-3.7,4.6-7.5,9.3-11,14c-0.7,0.9-1.3,1.3-2,2c-0.6,0.8-1.4,1.4-2,2c-15.7,18-28.3,40.3-46,56
		c0-1,0-2,0-3c-2.9-11.4,1.2-24.1,0-36s0.5-24.9,0-37s0-24.9,0-37c0-11.7-0.1-23.3,0-35s-0.2-24.3,0-36s-0.4-23.5,0-35s-0.8-25,0-36
		s-1.9-25,0-35s-5-27.4,2-34c4.7-4.4,12.9-6.4,17.8-11.2c4.9-4.9,12.1-8.6,17.3-12.7c5.2-4.1,11.9-9.7,17.2-12.9
		c5.3-3.1,12.5-10.7,17-13C462.7,40.9,473.3,30.2,476,33 M358,175c0,0.9-0.2,2.1,0,3c3.3,17.5,0.3,35.8,1,54s0,37.7,0,56
		c0,68.9-0.8,138.5,1,207c13.7-13.1,23.1-30,37-43c6.7-11,17.5-19.9,25-30c31.7-42.7,69.4-81.5,101-124
		c4.8-11.1,15.7-19.3,22.8-29.2c7-9.9,15.3-19.6,23.2-28.8c-11.9-16.1-32.7-24.4-44-41c47.4-15.7,93.9-33.5,142-47
		c6.5-1.8,10.6-3.9,17.7-6.3c7.1-2.4,9.3-4.1,17.5-6.5c8.2-2.4,8.4,1.5,5.8,9.8c-1.1,7.9-3.3,16.1-4,24c-3.8,40.5-9.2,81-16,121
		c-2.2,12.9-2.9,26.1-5,39c-5.2-5.4-11.1-8.3-16.2-13.8c-5.1-5.5-11-9.5-16.5-14.5c-5.5-5.1-11.9-11.6-17-3.5s-8.8,9.8-14.2,16.8
		c-0.5,0.5-0.6,1.4-1,2c-0.8,1.4-2.1,2-3,3c-1.8,2.5-3.4,5.6-5,8c-10.3,15.9-24.7,31.6-38,45c-4.5,7.3-11.2,14.2-16,21
		c-18.8,26.9-41.8,52.9-64,77c-4.9,6.3-10.6,12.4-15,19c-8.7,13.2-19.7,25.7-31,37c-8.1,9.5-15.1,19.3-23.2,28.8
		s-15.6,18.8-23.5,28.5s-14.6,19.4-23.2,28.8c-8.5,9.5-14.3,19.1-23.4,28.6c-9,9.5-13.1,24.1-28.7,23.3s-36.8,0-53,0c-0.5,0-1,0-1,0
		c-5-4.9,0.6-18.6-1-26s0.7-18.7,0-27s0.3-18.3,0-27s0.1-18.2,0-27s0.1-18.1,0-27s0-18,0-27c0-9,0-18,0-27s0-18,0-27s0-18,0-27
		s0-18,0-27s0-17.9,0-27s0-18.9,0-28s0-18,0-27s0-18.1,0-27s0-18.2,0-27c0-8.8,0-18.5,0-27s-0.4-16.6,0-25s-0.9-19.4,0-27
		s8-9.8,12.8-14.2c4.8-4.4,10.9-6.7,16-11c5.1-4.3,10.5-7.4,15.5-11.5c5-4.1,10-8,15.1-11.9c5-3.9,12-7.5,17.7-10.3
		c1.9-0.9,10.4-8.9,12-8c3.9,2.2-0.1,14.2,1,19s-0.6,14.4,0,20S359.1,170,358,175 M240,324c0,0.5,0,1,0,1c-2.3,6.4-8.8,11-12.2,16.8
		c-3.5,5.8-8.8,10.8-12.5,16.5c-3.8,5.7-8.5,11-12.5,16.5s-8.2,11.3-12.5,16.5c-4.3,5.2-7.8,12-12.2,16.8
		c-4.3,4.8-8.1,12.3-12.8,16.2c-4.8,3.8-6.6,15.2-12.2,16.8c-3.2,0.9-1.9-12.3-2-18s0-16.2,0-23s0-15.8,0-23s-0.1-15.6,0-23
		s-0.1-15.5,0-23s-0.3-15.7,0-23s-0.6-16,0-23s-2.8-15.6,3-20c6.4-4.9,14.4-8.9,21-14c6.3-4.9,14.5-11.4,21.1-15.9
		c6.6-4.5,5.9-5.2,11.1-7.9c5.2-2.7,5.8-6.3,10-8c4.2-1.7,7.6-7.1,11-8c3.3-1,9.4-8.6,11.8-7.2c3.9,2.2-0.1,14,1,19s-0.4,14,0,20
		s0,14.7,0,21s0.3,13.7,0,20s0.9,14,0,20S243.4,319.4,240,324 M241,448c0,11.3,0.6,23.8,0,35s2.1,23.9-1,34c-0.5,1.8-1,2.6-2,4
		c-7.3,10.1-15.2,19.6-22.2,29.8c-7,10.1-14.6,19.9-22.5,29.5c-7.9,9.6-13.4,20.9-22,30c-8.6,9.1-13.4,21.9-22.6,30.5
		c-9.1,8.5-10.6,25-24.7,27.3c-14.1,2.3-36.2-1.2-52,0s-36.7-0.9-53,0c16-20,30.2-41,46-61c7.9-11.5,19.4-22.4,25-35
		c4.2-9.3,11.7-16.7,19-24c2.1-2.1,3.7-4.5,5-7c2.9-5.5,7.1-12.9,11.8-17.2S132.7,510,139,508c0.2-0.4,0-1,0-1
		c6.7-17.1,23-29.8,33.2-44.8c10.3-15,22.5-30.1,33.5-44.5c11-14.4,21.2-32.3,35.2-43.8C241,398.7,241,423.3,241,448 M514,514
		c7,9.1,13.2,18.9,20,28c1.9,2.6,4.1,5.2,6,8c10.1,11.6,20.1,23.7,28.3,36.7c8.2,13,20.2,23.9,27.7,37.3c1.7,3,3.3,6.3,6,9
		c10.3,10.3,19.1,23.7,26,36c-16.2,0.7-32.9-0.9-49,0s-34.2-1.7-50,0s-19.1-12.8-27.3-22.7c-8.2-9.9-14.5-18.6-21.5-28.5
		c-7-9.9-14.9-19.8-20.2-29.8c-5.1-7.1-12.7-14.5-5.8-21.8c7-7.2,11-12.2,15.8-20.2c7.7-13,19.7-24.5,28.3-35.7
		C506.9,499.2,509.1,505.3,514,514z"/>
</g>
<g>
	<path class="st1" d="M389,93c-4.4,5.8,0.1,17.7-1,25s0,18.4,0,26c0.2,2.6,1.9,6.7,1,10c1.3,0,2.7,0,4,0c3.6-0.6,7.4-8,11.8-9.2
		c4.4-1.2,7.8-6.6,12-9c4.2-2.4,8.5-7.1,13.2-8.8c2.3,13.2,0.4,27.4,1,41c0,15.9-0.5,32.9,1,48c0-15.7,0-31.3,0-47
		c0-24.9-1.2-52.4,12.3-72.7C457.8,76,459.2,57.7,472,38c1.2-1.9,2.1-3.8,4-5c-2.7-2.8-13.3,7.9-17.8,10.2c-4.5,2.3-11.8,9.8-17,13
		c-5.3,3.1-11.9,8.8-17.2,12.9c-5.2,4.1-12.5,7.8-17.3,12.7C401.9,86.6,393.7,88.6,389,93z"/>
</g>
<g>
	<path class="st2" d="M472,38c-0.1,1.9,4.5,8.5,3,14s0.6,13,0,19s0.3,12.8,0,19s0.1,12.6,0,19s0,13.5,0,20c0,32.6-2.9,66.6,0,99
		c0.2-0.2,1,0,1,0c0-64.7,0-129.3,0-194c0,0-0.2-0.9,0-1C474.1,34.2,473.2,36.1,472,38z"/>
</g>
<g>
	<path class="st3" d="M476,228c0,26,0,52,0,78c3.6-8.5,0-20.3,1-30s-0.4-20.1,0-30s-0.2-20.9,0-31s0-19.9,0-30s0.1-21,0-31
		s0.3-20.1,0-30s0.7-21.4,0-31s1.6-21.1,0-30s4-22.2-1-29C476,98.7,476,163.3,476,228z"/>
</g>
<g>
	<path class="st4" d="M432,169c0.8,8.6,1.5,18.7,1,28c1.7-1.2,0.4-5.6,4-5c0.4,3.4,11.1-3.2,14.9-0.9c3.7,2.3,14.9,2,12.1-7.1
		c4.6-1.3,3.9,4.9,9,3c1-18.2,0.3-39.5,2-58c0-6.5-0.1-13.6,0-20s-0.3-12.8,0-19s-0.6-13,0-19s-1.5-13.5,0-19s-3.1-12.1-3-14
		c-12.8,19.7-14.2,38-27.7,58.3C430.8,116.6,432,144.1,432,169z"/>
</g>
<g>
	<path class="st5" d="M387,304c0,0,1,0,1,0c0-7.3,0-14.7,0-22c0-41.3,0-82.7,0-124c0-4.7,0-9.3,0-14c0-7.6-1.1-18.7,0-26
		s-3.4-19.2,1-25c-7,6.6-0.1,24-2,34s0.8,24,0,35s0.4,24.5,0,36s0.2,23.3,0,35s0.1,24.3,0,36S387,292.3,387,304z"/>
</g>
<g>
	<path class="st6" d="M346,125c-6.9,5.4-12.6,10.8-20.2,15.8c-7.6,5-12.9,9.8-21,15c-8.1,5.2-11.5,9.8-21,15
		C274.2,176,270,182.2,270,194c0.3-2.9,1.9-7.4,1-11c2.4,15.5-0.2,33.1,2,49c1.5-3.2,8.2,0,7,4c3.1,0,9-1,8,4
		c8.3-0.2,15.7,4.7,18,12c3.4-4.4,3.3,4,6,0c0.5,1.9-1.1,4.9,1,6c0-13.9,0.6-29.3,0-43s14.6-14.6,21-23c-2.7,1.6-5.9,4.1-10,3
		c-1.2-4.9-14.2-2.4-12-11c-5.8,0.9-10.5-1.8-16-2c-6-7.9-2.7-15,4.7-20.3c7.4-5.3,11.3-10.3,18.5-14.5c7.3-4.1,12-10.1,19-14
		c6.9-3.9,11.7-12.9,19.8-11.2c0-1.7,0-3.3,0-5C356.4,116.1,347.9,124.1,346,125z"/>
</g>
<g>
	<path class="st7" d="M358,122c0,17.7,0,35.3,0,53c1.1-5,1.6-13.4,1-19s1.1-15.2,0-20s2.9-16.8-1-19C358,118.7,358,120.3,358,122z"
		/>
</g>
<g>
	<path class="st8" d="M313,258c0,26,0,52,0,78c0,8,0.3,16.7,1,24c0-11,0-22,0-33c0-21,0-42,0-63c0-12.9,1-23.9,0-37s0.6-18.6,11-26
		c9.9-7.1,19.8-14.8,30-21c0.2-0.1,2.9-1.9,3-2c-0.2-0.9,0-2.1,0-3c0-17.7,0-35.3,0-53c-8.1-1.7-12.8,7.3-19.8,11.2
		c-7,3.9-11.7,9.9-19,14c-7.3,4.2-11.1,9.1-18.5,14.5c-7.4,5.3-10.8,12.4-4.7,20.3c5.5,0.2,10.2,2.9,16,2c-2.2,8.6,10.8,6.1,12,11
		c4.1,1.1,7.3-1.4,10-3c-6.4,8.4-21.6,9.3-21,23S313,244.1,313,258z"/>
</g>
<g>
	<path class="st9" d="M270,668c-1.8-20.3,0-41.6,0-62c0-68.7,0-137.3,0-206s0-137.3,0-206c0-11.8,4.2-18,13.8-23.2
		c9.5-5.2,12.9-9.8,21-15c8.1-5.2,13.4-10,21-15c7.6-5,13.3-10.4,20.2-15.8c-5.7,2.8-12.7,6.4-17.7,10.3c-5,3.9-10.1,7.8-15.1,11.9
		c-5,4.1-10.4,7.2-15.5,11.5c-5.1,4.3-11.2,6.6-16,11c-4.8,4.4-11.9,6.6-12.8,14.2s0.4,18.6,0,27s0,16.5,0,25s0,18.2,0,27
		c0,8.8,0,18.1,0,27s0,18,0,27s0,17.9,0,27s0,18.9,0,28s0,18,0,27s0,18,0,27s0,18,0,27s0,18,0,27s0,18,0,27c0,9-0.1,18.1,0,27
		s-0.1,18.2,0,27s-0.3,18.3,0,27s-0.7,18.7,0,27s-1.6,19.6,0,27S265,663.1,270,668z"/>
</g>
<g>
	<path class="st10" d="M393,154c1.1,0.4,5.5-0.9,3,3c7.3,0.2,12.1,4.5,20,3c-1.2,8.1,8.8-0.1,6,8c0.8-1.3,3.9-5,4-1
		c3.3-0.3,2.3-3.4,4-5c0.5,1.9-1.1,4.9,1,6c-0.6-13.6,1.3-27.8-1-41c-4.7,1.6-9.1,6.4-13.2,8.8c-4.2,2.4-7.6,7.8-12,9
		C400.4,146,396.6,153.4,393,154z"/>
</g>
<g>
	<path class="st11" d="M432,169c0,15.7,0,31.3,0,47c0,5.3,0,10.7,0,16c0.3,3.3,1.8,8,1,12c3.8-5.2,2.8-2,3,4c3,0.1,4.6-3.3,4-6
		c5.2,0.8,9.2-1.9,14-2s12.7,2.3,12-4c2.6,0.1,2.1,4.6,6,3c0.7-3.7,1.2-8,3-11c-2.9-32.4,0-66.4,0-99c-1.7,18.5-1,39.8-2,58
		c-5.1,1.9-4.4-4.3-9-3c2.8,9.1-8.4,9.4-12.1,7.1c-3.7-2.3-14.5,4.3-14.9,0.9c-3.6-0.6-2.3,3.8-4,5C433.5,187.7,432.8,177.6,432,169
		z"/>
</g>
<g>
	<path class="st12" d="M667,152c6.7-1.1,13.6-4.4,20.1-5.9c6.5-1.5,12.5-6.6,18.9-7.1c1.2-0.1,1.9-0.5,3-1c0.7,3.9-1.5,7.1-1,11
		c2.7-8.3,2.5-12.2-5.8-9.8c-8.2,2.4-10.5,4.1-17.5,6.5C677.6,148.1,673.5,150.2,667,152z"/>
</g>
<g>
	<path class="st13" d="M706,139c-2.9,2.2-3.9,9.1-7.8,12.2c-3.8,3.1-5.1,7.8-9.5,11.5c-4.3,3.7-4.3,7.1-9.5,11.5
		c-5.2,4.4-2.9,5.6-9,12c-6.1,6.4-13,16.8-18.5,23.5c-5.5,6.8-6,5.9-9.5,11.5c-3.6,5.6-5.9,6.9-9.5,11.5c-3.5,4.6-6.2,7-9.8,11.2
		c4-4,7.7-6,12-8c2.4,3.3,8,4.4,13,4c-2,5.4,6,2.6,4,8c5.3-1.3,7.2,4.7,12,4c-1,4.5,3.7,8.1,8,7c-0.2,6.2,7.4,5,12,5
		c-1.3,4.5,4.5,4.1,5,8c4-33.1,8.7-66.8,15-99c0.7-7.9,2.9-16.1,4-24c-0.5-3.9,1.7-7.1,1-11C707.9,138.5,707.2,138.9,706,139z"/>
</g>
<g>
	<path class="st14" d="M667,152c-48.1,13.5-94.6,31.3-142,47c11.3,16.6,32.1,24.9,44,41c-8,9.1-16.2,18.8-23.2,28.8
		c-7,9.9-17.9,18.2-22.8,29.2c-7.7,17.7-29.7,32.8-39,50c2.9,2.3,5,4.4,4,10c4.6-2,12.9-2.7,12,5c5.8,1.2,10.7,0.3,15,4
		c-24.6,35.3-56.2,66.9-79,103c4.8-1.3,6.3-7.9,11-10c19.7-23.1,38.3-46.4,57-70c7.4-9.3,14.6-19.6,23-28
		c30.1-40.5,63.3-79.8,96-118c3.6-4.2,6.2-6.6,9.8-11.2c3.5-4.6,5.9-5.9,9.5-11.5c3.6-5.6,4-4.7,9.5-11.5
		c5.5-6.8,12.4-17.1,18.5-23.5c6.1-6.4,3.8-7.5,9-12c5.2-4.4,5.2-7.8,9.5-11.5c4.3-3.7,5.6-8.4,9.5-11.5c3.8-3.1,4.9-10,7.8-12.2
		c-6.5,0.5-12.5,5.5-18.9,7.1C680.6,147.6,673.7,150.9,667,152z"/>
</g>
<g>
	<path class="st15" d="M388,158c0.1-0.4,1.4-1.8,2-2c0.6,25.8-1.3,53.2,1,78c1-2.6,3-0.4,5-2c-0.8,3.6,2.4,4.7,3,8
		c5.7-1.8,12.4-1.3,19,0c0.1-7.9,13.8,2.7,12-8c1.4,31.7,1,63.9,1,96c0,5.4,1.2,11.6,0,17s2.1,12.4,2,16c0.6-0.6,1.4-1.2,2-2
		c0.6-0.9,1.3-1.3,2-2c3.5-4.7,7.3-9.4,11-14c-4.4,3.5-11.2,11.5-16,16c0-20.3,0-40.7,0-61c0-22,0-44,0-66c0-5.3,0-10.7,0-16
		c-1.5-15.1-1-32.1-1-48c-2.1-1.1-0.5-4.1-1-6c-1.7,1.6-0.7,4.7-4,5c-0.1-4-3.2-0.3-4,1c2.8-8.1-7.2,0.1-6-8c-7.9,1.5-12.7-2.8-20-3
		c2.5-3.9-1.9-2.6-3-3c-1.3,0-2.7,0-4,0c0.9-3.3-0.8-7.4-1-10C388,148.7,388,153.3,388,158z"/>
</g>
<g>
	<path class="st16" d="M388,158c0,41.3,0,82.7,0,124c1.1,11.6,3.2,23.4,4,35c4.5,3.6,9.9,4.3,16,3c6.1-1.2,12.4,2.9,16,0
		c1.9,2,3.4,6.1,6,2c0.5,1.9-1.1,4.9,1,6c0-32.1,0.4-64.3-1-96c1.8,10.7-11.9,0.1-12,8c-6.6-1.3-13.3-1.8-19,0c-0.6-3.3-3.8-4.4-3-8
		c-2,1.6-4-0.6-5,2c-2.3-24.8-0.4-52.2-1-78C389.4,156.2,388.1,157.6,388,158z"/>
</g>
<g>
	<path class="st17" d="M623,244c-32.7,38.2-65.9,77.5-96,118c5.8-5.8,11-11.7,15.9-18.1c4.9-6.4,10.7-12.6,15-19
		c4.3-6.4,10.8-17.1,18.1-12.9c-1.8,8.7,11.8,9.9,16,8c2,3.8,7.9,4.6,8,10c2.8,0.1,4.7,0.2,7,1c1.2-1.3,1.6-3.1,3-4
		c2.3-2.6,4.1-6.2,7-8c6.5-8,10.5-16,18.2-22.8s15.4,7.3,23,12.5c7.6,5.2,14,15.9,22.8,19.2c4.5-10.6,1.3-24.1,7-34
		c6.8-40,12.2-80.5,16-121c-6.3,32.2-11,65.9-15,99c-0.5-3.9-6.3-3.5-5-8c-4.6,0-12.2,1.2-12-5c-4.3,1.1-9-2.5-8-7
		c-4.8,0.7-6.7-5.3-12-4c2-5.4-6-2.6-4-8c-5,0.4-10.6-0.7-13-4C630.7,238,627,240,623,244z"/>
</g>
<g>
	<path class="st18" d="M355,180c1,0.1,2-0.1,3,0c0,20,0,40,0,60c0,14.3,0,28.7,0,43c0,1.7,0,3.3,0,5c0,0.1,1,0,1,0
		c0-18.3,0.7-37.8,0-56s2.3-36.5-1-54C357.9,178.1,355.2,179.9,355,180z"/>
</g>
<g>
	<path class="st19" d="M325,201c-13.8,11.6-10,26.7-10,44c1.3,0.5,4.2,0,2,3c6.4,1.2,10.6-2.2,15,0c-1.8-4.6,10.5-7.6,8-2
		c2.5-0.9,5.1-3.4,6-6c1.8-2.1,2.7,6.3,3.7,3.6c1-2.7,1.1-4.8,5.3-3.6c-0.4-2.9,0.3-5.4,1-8c2.6,1.6-0.7,6.4,2,8c0-20,0-40,0-60
		c-1-0.1-2,0.1-3,0C344.8,186.2,334.9,193.9,325,201z"/>
</g>
<g>
	<path class="st20" d="M270,194c0,68.7,0,137.3,0,206c3.2-33-0.3-68.2,1-102c1.8,8.7,1.3,18.9,3,28c1.1-2.4,1.8-6.4,6-5
		c-4,9.3,10.6,6.3,8-1c9.9-1.9,16.5,3.4,23,7c0-3.3,0-6.7,0-10c2.9,5.3-0.9,13.8,2,19c0-26,0-52,0-78c-2.1-1.1-0.5-4.1-1-6
		c-2.7,4-2.6-4.4-6,0c-2.3-7.3-9.7-12.2-18-12c1-5-4.9-4-8-4c1.2-4-5.5-7.2-7-4c-2.2-15.9,0.4-33.5-2-49
		C271.9,186.6,270.3,191.1,270,194z"/>
</g>
<g>
	<path class="st21" d="M314,264c0.9,9.6,1.4,20.7,1,31c4.1-3.1,10-2.4,4-7c2.4,1.7,9.6,4.3,9-1c2.6-0.8,7.3,3.9,6-1
		c5.6,4.7,13.1-5.2,20-1c-7.3,0.9-5,3.1,1,1c-0.4-5.5,1.8-10.4,1-16c2.8,3.3-0.9,9.8,2,13c0-14.3,0-28.7,0-43c-2.7-1.6,0.6-6.4-2-8
		c-0.7,2.6-1.4,5.1-1,8c-4.2-1.2-4.3,1-5.3,3.6c-1,2.7-1.9-5.7-3.7-3.6c-0.9,2.6-3.5,5.1-6,6c2.5-5.6-9.8-2.6-8,2
		c-4.4-2.2-8.6,1.2-15,0c2.2-3-0.7-2.5-2-3c0-17.3-3.8-32.4,10-44c-10.4,7.4-12,12.9-11,26S314,251.1,314,264z"/>
</g>
<g>
	<path class="st22" d="M175,251c-2.5,2.8-8.4,7.8-13,11c-0.9,3.8,5.9,4.9,2,7c4.4,0.1,8.2,6.4,10,10c4.7-2.7,9,0.8,10,5
		c1.8,1.9,2.6-6.1,3.7-3.6c1.1,2.5,2.4,3.6,5.3,1.6c2.2,1.6-2.7,3.1-1,6c4.3,0.4,8.4,0.6,9-4c0.9,5.3,8.9,8.9-1,8
		c2.3,1.8,7.4,1.7,9-1c3.5,4,1.1,1.2-1,5c10-1.8,20.9,2.9,24,11c7.4-1.1,6.1-7.6,8-14c0-29.7,0-59.3,0-89c-2.4-1.3-8.4,6.3-11.8,7.2
		c-3.4,0.9-6.8,6.3-11,8c-4.2,1.7-4.8,5.3-10,8c-5.2,2.7-4.6,3.4-11.1,7.9C189.5,239.6,181.3,246.1,175,251z"/>
</g>
<g>
	<path class="st23" d="M240,293c0,10.3,0,20.7,0,31c3.4-4.6,0.1-14,1-20s-0.3-13.7,0-20s0-13.7,0-20s0.4-15,0-21s1.1-15,0-20
		s2.9-16.8-1-19C240,233.7,240,263.3,240,293z"/>
</g>
<g>
	<path class="st24" d="M432,232c0,22,0,44,0,66c0.6,6.6,1.6,14.7,1,22c5.3-1.3,8.8-3.2,15-2c-3.7,3.6-3.8,2.3,0,6
		c0.8-3.4,3.5-5.5,3,0c4.2-1.6,4.3,2.2,7,3c2.5-3.2,6-8,9.2-10.8c3.2-2.7,6.6-10.5,7.8-8.2c0.1-0.2,1,0,1,0c0-0.5,0-1.5,0-2
		c0-26,0-52,0-78c0,0-0.8-0.2-1,0c-1.8,3-2.3,7.3-3,11c-3.9,1.6-3.4-2.9-6-3c0.7,6.3-7.2,3.9-12,4s-8.8,2.8-14,2c0.6,2.7-1,6.1-4,6
		c-0.2-6,0.8-9.2-3-4C433.8,240,432.3,235.3,432,232z"/>
</g>
<g>
	<path class="st25" d="M154,265c-7.1,7.2-0.2,22.8-2,33s0.8,24.9,0,36s0.3,24.5,0,36s-0.1,24.4,0,36s-0.9,24.2,1,35
		c5.6-1.6,7.5-12.9,12.2-16.8c4.8-3.9,8.5-11.4,12.8-16.2c4.3-4.8,7.8-11.7,12.2-16.8c4.3-5.2,8.5-11,12.5-16.5s8.8-10.8,12.5-16.5
		c3.7-5.7,9-10.7,12.5-16.5c3.5-5.8,9.9-10.3,12.2-16.8c-2.7-1.2-7.5,7.3-10.8,10.2c-3.3,3-6.6,10.2-10,14
		c-3.4,3.8-7.5,9.5-11.2,12.8c-2.3-2.8-8.7,2.1-8-6c-5.9-3.5-17.6-1-20-8c-2.5,4.9-5.6-1.3-9,3c1.5-3.7-2.2-8.5-6-5
		c-1.6-1.7-3.8-3-3-6c-4.9,6.6-2.8-4.8-7,0c-0.7-13.2-1.8-29.8-1-43s-6.9-29,8-35c4.6-3.2,10.5-8.2,13-11
		C168.4,256.1,160.4,260.1,154,265z"/>
</g>
<g>
	<path class="st26" d="M240,325c0,0,0-0.5,0-1c0-10.3,0-20.7,0-31c-1.9,6.4-0.6,12.9-8,14c-3.1-8.1-14-12.8-24-11c2.1-3.8,4.5-1,1-5
		c-1.6,2.7-6.7,2.8-9,1c9.9,0.9,1.9-2.7,1-8c-0.6,4.6-4.7,4.4-9,4c-1.7-2.9,3.2-4.4,1-6c-2.9,2-4.2,0.9-5.3-1.6
		c-1.1-2.5-1.9,5.6-3.7,3.6c-1-4.2-5.3-7.7-10-5c-1.8-3.6-5.6-9.9-10-10c3.9-2.1-2.9-3.2-2-7c-14.9,6-7.2,21.8-8,35s0.3,29.8,1,43
		c4.2-4.8,2.1,6.6,7,0c-0.8,3,1.4,4.3,3,6c3.8-3.5,7.5,1.3,6,5c3.4-4.3,6.5,1.9,9-3c2.4,7,14.1,4.5,20,8c-0.7,8.1,5.7,3.2,8,6
		c3.7-3.3,7.8-9,11.2-12.8c3.4-3.8,6.7-11,10-14C232.5,332.3,237.3,323.8,240,325z"/>
</g>
<g>
	<path class="st27" d="M314,327c0.7,7.6,1.5,16.7,1,25c5.1-3.3,11,2,18,0s15.5-3.9,21,2c3.5-7.2,1.5-16,2-24c2.4,1-0.5,5,2,6
		c0-16,0-32,0-48c0-1.7,0-3.3,0-5c-2.9-3.2,0.8-9.7-2-13c0.8,5.6-1.4,10.5-1,16c-6,2.1-8.3-0.1-1-1c-6.9-4.2-14.4,5.7-20,1
		c1.3,4.9-3.4,0.2-6,1c0.6,5.3-6.6,2.7-9,1c6,4.6,0.1,3.9-4,7c0.4-10.3-0.1-21.4-1-31C314,285,314,306,314,327z"/>
</g>
<g>
	<path class="st28" d="M153,441c-1.9-10.8-0.9-23.4-1-35s-0.3-24.5,0-36s-0.8-24.9,0-36s-1.8-25.8,0-36s-5.1-25.8,2-33
		c-5.8,4.4-2.4,13-3,20s0.3,15.7,0,23s0.1,15.5,0,23s0.1,15.6,0,23s0,15.8,0,23s0,16.2,0,23s-0.1,17.3,0,23S149.8,441.9,153,441z"/>
</g>
<g>
	<path class="st29" d="M388,304c0,12.2-0.5,24.9,0,37s-1.3,25.1,0,37s-2.5,25.3-1,36c0,1,0,2,0,3c17.7-15.7,30.3-38,46-56
		c0.1-3.6-3.2-10.6-2-16s0-11.6,0-17c-2.1-1.1-0.5-4.1-1-6c-2.6,4.1-4.1,0-6-2c-3.6,2.9-9.9-1.2-16,0c-6.1,1.3-11.5,0.6-16-3
		c-0.8-11.6-2.9-23.4-4-35C388,289.3,388,296.7,388,304z"/>
</g>
<g>
	<path class="st30" d="M358,336c0,15,0,30,0,45c0,21,0,42,0,63c0,16.9,2.8,36.4,0,53c12.7-12.7,25.1-29.2,38-43c0.5-0.5,0.6-1.4,1-2
		c-13.9,13-23.3,29.9-37,43c-1.8-68.5-1-138.1-1-207c0,0-1,0.1-1,0C358,304,358,320,358,336z"/>
</g>
<g>
	<path class="st31" d="M617,319c0.6-0.4,1.4-0.6,2-1c5.5-6.9,9.1-8.6,14.2-16.8s11.6-1.6,17,3.5c5.5,5.1,11.3,9.1,16.5,14.5
		c5.1,5.5,11.1,8.3,16.2,13.8c2.1-12.9,2.8-26.1,5-39c-5.7,9.9-2.5,23.4-7,34c-8.7-3.3-15.2-14-22.8-19.2
		c-7.6-5.2-15.2-19.3-23-12.5S623.5,311,617,319z"/>
</g>
<g>
	<path class="st32" d="M270,400c0,68.7,0,137.3,0,206c1.9,19.1,2.8,42.2,1,62c16.2,0,37.4-0.8,53,0s19.7-13.8,28.7-23.3
		c9-9.5,14.8-19.2,23.4-28.6c8.5-9.5,15.3-19.1,23.2-28.8s15.4-19.1,23.5-28.5s15.2-19.3,23.2-28.8c10-11.7,18.8-24.8,29-36
		c-11.4,7-17.4,21.2-26.2,30.8s-18.4,20.6-26.5,30.5c-8.1,9.9-16.7,21.9-24.2,28.8c-3.2-4.8-8.5-6.8-14-8c2.3-9.4-8.2-7.5-13-5
		c-3.3-2.6-6.3-4.1-10-5c-2.2,3-5,5.9-8,8c-0.2,0.4,0,1,0,1c-5.8,7.5-11.7,14.9-18,22c-5.5,7.7-11.8,14.6-18.2,21.8
		s-10.7,15.9-18.5,22.5s-9.1,17-19,22c-9.9,5-7.2-17.9-7.3-28.3s-1.5-26.8,5-36c-1.5,1.8-4.3,3.4-6,5c0.7-53.2-1.3-107.6,1-160
		c1.3,3.5,1.8,7.8,3,11c0.7-2.5,1.9-5.5,0-8c2.6,3.5,5,1.2,9,3c4.1,1.8,7.8,3.7,12,0c-1.3,6.9,8,3,12,4c-0.7,3.6,1.2,6.5,1,10
		c2.6-1.6-0.7-6.4,2-8c4.5,24-0.1,53,3,78c0-35.3,0-70.7,0-106c0-9.3,0-18.7,0-28c0-13.3,0-26.7,0-40c-0.7-7.3-1-16-1-24
		c-2.9-5.2,0.9-13.7-2-19c0,3.3,0,6.7,0,10c-6.5-3.6-13.1-8.9-23-7c2.6,7.3-12,10.3-8,1c-4.2-1.4-4.9,2.6-6,5
		c-1.7-9.1-1.2-19.3-3-28C269.7,331.8,273.2,367,270,400z"/>
</g>
<g>
	<path class="st33" d="M448,343c4.6-5.8,9.6-12.6,15-18c4-5.4,9.8-10.8,12-17c-1.2-2.3-4.5,5.5-7.8,8.2c-3.2,2.7-6.8,7.5-9.2,10.8
		c-2.7-0.8-2.8-4.6-7-3c0.5-5.5-2.2-3.4-3,0c-3.8-3.7-3.7-2.4,0-6c-6.2-1.2-9.7,0.7-15,2c0.6-7.3-0.4-15.4-1-22c0,20.3,0,40.7,0,61
		C436.8,354.5,443.6,346.5,448,343z"/>
</g>
<g>
	<path class="st34" d="M422,422c-3.7,7.8-14,15.7-17,25c10.1-9.1,17.9,1.7,27,5c0.7,5.1-3.5,5-2,11c8.2-5.8,4.4,6.6-0.8,11.2
		c-5.2,4.6-8.5,11.7-13.2,16.8c-4.6,5.2-9.4,10.7-13.8,16.2c-4.4,5.5-7.9,12.2-12.2,17.8c7-2.6,9.6-11.2,16-15
		c11.4-11.4,22.5-25.3,32-38c3-4,5.7-8.2,9-12c-4.7,2.1-6.2,8.7-11,10c22.8-36.1,54.4-67.7,79-103c-4.3-3.7-9.2-2.8-15-4
		c0.9-7.7-7.4-7-12-5c1-5.6-1.1-7.7-4-10c9.3-17.2,31.3-32.3,39-50C491.4,340.5,453.7,379.3,422,422z"/>
</g>
<g>
	<path class="st35" d="M387,414c-1.5-10.7,2.3-24.1,1-36s0.5-24.9,0-37s0-24.8,0-37c0,0-1,0-1,0c0,12.1-0.5,24.9,0,37
		s-1.2,25.1,0,37S384.1,402.6,387,414z"/>
</g>
<g>
	<path class="st36" d="M463,325c3.9-3.9,13-11.2,13-17c0,0-0.9-0.2-1,0C472.8,314.2,467,319.6,463,325z"/>
</g>
<g>
	<path class="st37" d="M527,362c-8.4,8.4-15.6,18.7-23,28c6-6,11.4-11,17-17c3.4,5.7,9,3.3,15,3c-8.8,3.2,9.1,1.2,12,4
		c-1.1,3.6,3.1,5.4,2,9c3-3.4,6.1,1,10-1c3.2-3.9,6.5-10.3,11-13c14-14,27.8-32,39-48c-1.4,0.9-1.8,2.7-3,4c-2.3-0.8-4.2-0.9-7-1
		c-0.1-5.4-6-6.2-8-10c-4.2,1.9-17.8,0.7-16-8c-7.2-4.1-13.8,6.5-18.1,12.9c-4.3,6.4-10.1,12.6-15,19C538,350.3,532.8,356.2,527,362
		z"/>
</g>
<g>
	<path class="st38" d="M617,319c-2.9,1.8-4.7,5.4-7,8c-11.2,16-25,34-39,48c0.6-0.4,1.4-0.6,2-1c7.7-4.7,12.5-14.9,18.3-21.7
		c5.8-6.8,13-14.4,18.7-21.3c1.6-2.4,3.2-5.5,5-8c0.9-1.2,2.1-2,3-3c0.4-0.6,0.5-1.5,1-2C618.4,318.4,617.6,318.6,617,319z"/>
</g>
<g>
	<path class="st39" d="M615,323c0.9-1,2.2-1.6,3-3C617.1,321,615.9,321.8,615,323z"/>
</g>
<g>
	<path class="st40" d="M314,360c0,13.3,0,26.7,0,40c0.4,3.8,2.3,8.6,2,13c1.9-1.8,4.9,1.2,4-3c5.4-0.4,11.4,1.3,16-2
		c-2.6,8.4,6.9,5.6,12,6c-1.3-6.4,2.4,0.1,3-4c2.5,1.3-0.6,5.7,2,7c4.5-10.5-0.5-25.4,5-36c0-15,0-30,0-45c-2.5-1,0.4-5-2-6
		c-0.5,8,1.5,16.8-2,24c-5.5-5.9-14-4-21-2s-12.9-3.3-18,0c0.5-8.3-0.3-17.4-1-25C314,338,314,349,314,360z"/>
</g>
<g>
	<path class="st41" d="M573,374c-0.5,0.5-0.6,1.4-1,2c13.3-13.4,27.7-29.1,38-45c-5.7,6.9-12.9,14.5-18.7,21.3
		C585.5,359.1,580.7,369.3,573,374z"/>
</g>
<g>
	<path class="st42" d="M435,359c0.7-0.7,1.3-1.1,2-2C436.3,357.7,435.6,358.1,435,359z"/>
</g>
<g>
	<path class="st43" d="M504,390c-18.7,23.6-37.3,46.9-57,70c-3.3,3.8-6,8-9,12c-0.2,0.7,1.4,5.7-1,8c4.3-1.2,11.6,8.1,18.7,7.3
		c7.1-0.8,16.8,8.1,22.1,1.4c5.3-6.6,9.5-10.7,14-17c4.5-6.3,8.6-10.9,13.5-16.5s8.8-10.8,13.5-16.5c4.7-5.6,9.7-11.2,14-17
		c4.3-5.8,9.1-10.7,13.5-16.5s10.2-11,13.8-17.2c-3.9,2-7-2.4-10,1c1.1-3.6-3.1-5.4-2-9c-2.9-2.8-20.8-0.8-12-4
		c-6,0.3-11.6,2.7-15-3C515.4,379,510,384,504,390z"/>
</g>
<g>
	<path class="st44" d="M139,507c9.1-6.4,13.5-18.7,21.2-26.8c7.8-8.1,13.4-18.6,20.5-27.5c7.1-8.8,14.7-18.6,21.2-27.8
		c3.5-4.8,7.5-9.4,11-14c7.3-12.6,18.1-23.6,26-36c2.3,18.8,0.3,39.5,1,59c0,4.7,0,9.3,0,14c0.3-0.2,1,0,1,0c0-24.7,0-49.3,0-74
		c-14.1,11.5-24.2,29.4-35.2,43.8c-11,14.4-23.2,29.5-33.5,44.5C162,477.2,145.7,489.9,139,507z"/>
</g>
<g>
	<path class="st45" d="M571,375c-4.5,2.7-7.8,9.1-11,13c-3.6,6.3-9.4,11.4-13.8,17.2s-9.2,10.7-13.5,16.5c-4.3,5.8-9.3,11.4-14,17
		c-4.7,5.7-8.6,10.8-13.5,16.5s-9,10.2-13.5,16.5c-4.5,6.3-8.7,10.4-14,17c-5.3,6.6-15-2.2-22.1-1.4c-7.1,0.8-14.4-8.6-18.7-7.3
		c2.4-2.3,0.8-7.3,1-8c-9.5,12.7-20.6,26.6-32,38c-12.7,18.2-29.1,34.4-43,52c-3,3.8-7.9,7.7-10,12c3-2.1,5.8-5,8-8
		c3.7,0.9,6.7,2.4,10,5c4.8-2.5,15.3-4.4,13,5c5.5,1.2,10.8,3.2,14,8c7.5-6.8,16.2-18.8,24.2-28.8c8.1-9.9,17.6-21,26.5-30.5
		S463.6,501,475,494c0.5-0.3,1.6-0.6,2-1c4.4-6.6,10.1-12.7,15-19c20.7-26.3,42.9-51.3,64-77c4.8-6.8,11.5-13.7,16-21
		c0.4-0.6,0.5-1.5,1-2C572.4,374.4,571.6,374.6,571,375z"/>
</g>
<g>
	<path class="st46" d="M213,411c-2.2,3.8-6.3,7.7-5,12c4.3-1.2,9.2,2.5,15,1c0.3,5,5.1,4,9,4c-2,8.6,3.9,2.8,8,6
		c-0.7-19.5,1.3-40.2-1-59C231.1,387.4,220.3,398.4,213,411z"/>
</g>
<g>
	<path class="st47" d="M314,400c0,9.3,0,18.7,0,28c0.6,6,0.7,13,4,18c6.2,0.5,10.4-5.2,16-2c0.7-7.1,17.9-4.8,21-2
		c0-4.1-0.4-8.2,1-12c2.9,3.6-0.9,10.5,2,14c0-21,0-42,0-63c-5.5,10.6-0.5,25.5-5,36c-2.6-1.3,0.5-5.7-2-7c-0.6,4.1-4.3-2.4-3,4
		c-5.1-0.4-14.6,2.4-12-6c-4.6,3.3-10.6,1.6-16,2c0.9,4.2-2.1,1.2-4,3C316.3,408.6,314.4,403.8,314,400z"/>
</g>
<g>
	<path class="st48" d="M492,474c22.2-24.1,45.2-50.1,64-77C534.9,422.7,512.7,447.7,492,474z"/>
</g>
<g>
	<path class="st49" d="M202,425c-5.9,12.6-20.1,24.8-25,39c7.9-1,14,7.1,23,7c-1.1,3.8,3.1,2.5,5,4c-1,4.7,2.8,5.8,5,9
		c9.2-9.1,15.3-21.3,25-30c2-2.8,2.4-2.5,5-4c0-0.5,0-1.5,0-2c0-4.7,0-9.3,0-14c-4.1-3.2-10,2.6-8-6c-3.9,0-8.7,1-9-4
		c-5.8,1.5-10.7-2.2-15-1c-1.3-4.3,2.8-8.2,5-12C209.5,415.6,205.5,420.2,202,425z"/>
</g>
<g>
	<path class="st50" d="M397,452c-0.4,0.6-0.5,1.5-1,2c-1.9,8-14.3,17-19.2,24.8s-5,6.5-10,13c-5.1,6.4-1.9,8.5,1.3,14.3
		c10.3,0.6,10.7,5.5,19.7,8.3c8.9,2.8-0.6,11.3-5,17.4c-4.4,6.1-10,11.3-14.5,17.5s-10,12.9-13.2,19.8c3.1-1.7,4.9-5.3,8-7
		c13.9-17.6,30.3-33.8,43-52c-6.4,3.8-9,12.4-16,15c4.3-5.6,7.8-12.3,12.2-17.8c4.4-5.5,9.2-11,13.8-16.2c4.7-5.2,8-12.3,13.2-16.8
		c5.1-4.6,9-17,0.8-11.2c-1.5-6,2.7-5.9,2-11c-9.1-3.3-16.9-14.1-27-5c3-9.3,13.3-17.2,17-25C414.5,432.1,403.7,441,397,452z"/>
</g>
<g>
	<path class="st51" d="M139,507c0,0,0.2,0.6,0,1c-1,1.6-1.9,3.5-3,5c0,0.1-0.4,3-1,4c0.9-0.5,4.1-1,3,2c1.2-2,3.2-3.7,6-3
		c-6.4,3.3,3.6,8.5,8,8c0.9,8.5,10.1,6,16,10c0.8,3.8-5.7,0.1-5,4c7.1,2.8,9-3.2,14-7c0.2-0.3,0.9-0.7,1-1
		c6.5-13.9,18.8-25.5,27.8-38.2c9-12.7,20.3-25,29.2-37.8c-9.7,8.7-15.8,20.9-25,30c-2.2-3.2-6-4.3-5-9c-1.9-1.5-6.1-0.2-5-4
		c-9,0.1-15.1-8-23-7c4.9-14.2,19.1-26.4,25-39c-6.6,9.1-14.1,18.9-21.2,27.8c-7.1,8.9-12.7,19.4-20.5,27.5
		C152.5,488.3,148.1,500.6,139,507z"/>
</g>
<g>
	<path class="st52" d="M314,534c0,9.7,1.4,19.7-5.8,26.2c-7.2,6.6-10.1,12.2-16,19C286.4,586,281.9,592,277,599
		c-6.5,9.2-5.1,25.6-5,36s-2.6,33.3,7.3,28.3c9.9-5,11.2-15.4,19-22s12-15.3,18.5-22.5s12.7-14,18.2-21.8c-5.1,5.7-10.4,14.2-18,16
		c-0.1-5.4-4.3-5.5-9-5c0-3.6-1.8-6.6,0-10c-8.4-2.2-13.1-8.5-18-14c12.1-13.9,22.7-29,34-43c6.3-6.3,11.8-15,17.3-21.7
		c5.5-6.7,15.3-13.9,16.7-22.3c2.8-16.6,0-36.1,0-53c-2.9-3.5,0.9-10.4-2-14c-1.4,3.8-1,7.9-1,12c-3.1-2.8-20.3-5.1-21,2
		c-5.6-3.2-9.8,2.5-16,2c-3.3-5-3.4-12-4-18C314,463.3,314,498.7,314,534z"/>
</g>
<g>
	<path class="st53" d="M277,599c4.9-7,9.4-13,15.2-19.8c5.9-6.8,8.8-12.4,16-19c7.2-6.6,5.8-16.5,5.8-26.2c-3.1-25,1.5-54-3-78
		c-2.7,1.6,0.6,6.4-2,8c0.2-3.5-1.7-6.4-1-10c-4-1-13.3,2.9-12-4c-4.2,3.7-7.9,1.8-12,0c-4-1.8-6.4,0.5-9-3c1.9,2.5,0.7,5.5,0,8
		c-1.2-3.2-1.7-7.5-3-11c-2.3,52.4-0.3,106.8-1,160C272.7,602.4,275.5,600.8,277,599z"/>
</g>
<g>
	<path class="st54" d="M240,450c0,11,0.7,22,0,33s1.9,23.2,0,34c3.1-10.1,0.4-22.8,1-34s0-23.7,0-35c0,0-0.7-0.2-1,0
		C240,448.5,240,449.5,240,450z"/>
</g>
<g>
	<path class="st55" d="M235,454c-9,12.8-20.2,25-29.2,37.8c-9,12.7-21.2,24.3-27.8,38.2c3,0.2,0.6,0.7,0,2c3.9,1.7,8.7,0,12.2,2.8
		c3.5,2.8,9.6-2.2,7.8,5.2c2.6-3.2,12.3-1.8,11,3c3.9-0.2,6.3,0,10,0c4.9-8,13.4-16.6,19-22c1-1.4,1.5-2.2,2-4c1.9-10.8-0.7-23,0-34
		s0-22,0-33C237.4,451.5,237,451.2,235,454z"/>
</g>
<g>
	<path class="st56" d="M358,497c-1.4,8.4-11.2,15.6-16.7,22.3c-5.5,6.7-11,15.4-17.3,21.7c-1.6,2.2-3.4,4.5-4,7c2.5-1.9,4.4,1.7,6,3
		c4.3-1.7,17.4,2.2,14,7c2.4-0.4,7.8,0.9,4,3c3.5,0.2,5.4,4.3,9,2c-1.5,11.4-12.8,21.3-17,29c6.6-2.7,10.3-12.4,17-17
		c0,0-0.2-0.6,0-1c2.1-4.3,7-8.2,10-12c-3.1,1.7-4.9,5.3-8,7c3.2-6.8,8.8-13.5,13.2-19.8s10-11.5,14.5-17.5
		c4.4-6.1,13.9-14.6,5-17.4c-9-2.8-9.4-7.7-19.7-8.3c-3.2-5.8-6.4-7.9-1.3-14.3c5.1-6.5,5.1-5.2,10-13S394.1,462,396,454
		C383.1,467.8,370.7,484.3,358,497z"/>
</g>
<g>
	<path class="st57" d="M475,494c-10.2,11.2-19,24.3-29,36c11.3-11.3,22.3-23.8,31-37C476.6,493.4,475.5,493.7,475,494z"/>
</g>
<g>
	<path class="st58" d="M470,546c1.4-1.7,3.6-3.3,5-5c10.6-12.4,20.4-26.5,32-37c1,3.1,4,4.9,5,8c0.5,0.7,1.5,1.3,2,2
		c-4.9-8.7-7.1-14.8-15.7-3.7C489.7,521.5,477.7,533,470,546z"/>
</g>
<g>
	<path class="st59" d="M475,541c1.2-1.1,2.7-2.2,4-3c0.1,4.7,3.2,9.3,7,12c-3-4.7-9.9-6.3-4.7-13.7c5.2-7.4,13.9-16.5,18.9-24.1
		c5-7.5,8.4-2.6,11.8-0.2c-1-3.1-4-4.9-5-8C495.4,514.5,485.6,528.6,475,541z"/>
</g>
<g>
	<path class="st60" d="M114,541c6.8-9.5,15.1-18.7,22-28c1.1-1.5,2-3.4,3-5c-6.3,2-8.6,11.4-13.2,15.8S116.9,535.5,114,541z"/>
</g>
<g>
	<path class="st61" d="M486,550c0.9,1.4,1.3,2.7,2,4c0.9,1.2,3.1,1.9,4,3c-1.9-3.3-5.4-6-3-10c3.2,1.2,11.5,0.8,14-3
		c4.7,4.9,11.5-4.7,15-1c-0.7-3.8,3.9-0.7,6-5c4.2,0.6,7.1,4.2,11,7c0.5-1.3-1-1.9-1-3c-6.8-9.1-13-18.9-20-28c-0.5-0.7-1.5-1.3-2-2
		c-3.3-2.3-6.7-7.3-11.8,0.2c-5,7.5-13.7,16.7-18.9,24.1C476.1,543.7,483,545.3,486,550z"/>
</g>
<g>
	<path class="st62" d="M114,541c-1.3,2.5-2.9,4.9-5,7c-2.4,3.3-4.7,6.8-7,10c-1,2.6-3.3,6.9-4,11c4.4,0.5,1.6,5.7,4,9
		c2.4,3.4,3.7,8.1,10,6c-4.2,11.6,13.5,4,12,14c3.7-1.7,4.3-6.4,8-8c6.5-6.5,12.6-15.5,18-23c1-1.3,2.1-2.7,3-4c-3,3.6-6.9,9.1-12,9
		c1.5-4.7-4.6-2.7-3-8c-4.9,1.4-6.6-2.8-8-6c-4.8,1.5-5.4-2.5-6-6c-2.7,0.5-4.6,0.8-7-1c4-4.5-1.7-1.3-4-3c5.2-11.7,14.8-20.8,22-31
		c0.6-1,1-3.9,1-4C129.1,522.3,120.8,531.5,114,541z"/>
</g>
<g>
	<path class="st63" d="M135,517c-7.2,10.2-16.8,19.3-22,31c2.3,1.7,8-1.5,4,3c2.4,1.8,4.3,1.5,7,1c0.6,3.5,1.2,7.5,6,6
		c1.4,3.2,3.1,7.4,8,6c-1.6,5.3,4.5,3.3,3,8c5.1,0.1,9-5.4,12-9c7.3-10.8,16.3-21.1,24-32c-5,3.8-6.9,9.8-14,7c-0.7-3.9,5.8-0.2,5-4
		c-5.9-4-15.1-1.5-16-10c-4.4,0.5-14.4-4.7-8-8c-2.8-0.7-4.8,1-6,3C139.1,516,135.9,516.5,135,517z"/>
</g>
<g>
	<path class="st64" d="M219,543c-8.1,13.4-20.2,25.3-29,38c-4.1-2.6-6,1.3-10,1c1.2-4.4-6.1-1.8-4-7c-2,4.1-7.3-2-8-5
		c-6.7,0.3-14-3.7-18-3c-5.4,7.5-11.5,16.5-18,23c-4.2,5.7-8.1,11.2-11.9,17.1c-3.9,5.9-10,10.4-13.3,16.7S96.2,635.2,93,640
		c-10-8.6-16.4-19.5-28-26c0.4-2.7,4.7-2.3,0-4c1.2-1.2,3.2-4.8,0-3c-15.8,20-30,41-46,61c16.3-0.9,37.2,1.2,53,0s37.9,2.3,52,0
		c14.1-2.3,15.6-18.8,24.7-27.3c9.2-8.6,14-21.3,22.6-30.5c8.6-9.1,14.1-20.4,22-30c7.9-9.6,15.5-19.4,22.5-29.5
		c7-10.1,15-19.7,22.2-29.8C232.4,526.4,223.9,535,219,543z"/>
</g>
<g>
	<path class="st65" d="M177,531c-7.7,10.9-16.7,21.2-24,32c-0.9,1.3-2,2.7-3,4c4-0.7,11.3,3.3,18,3c0.7,3,6,9.1,8,5
		c-2.1,5.2,5.2,2.6,4,7c4,0.3,5.9-3.6,10-1c8.8-12.7,20.9-24.6,29-38c-3.7,0-6.1-0.2-10,0c1.3-4.8-8.4-6.2-11-3
		c1.9-7.4-4.3-2.4-7.8-5.2c-3.5-2.8-8.3-1.1-12.2-2.8c0.6-1.3,3-1.8,0-2C177.9,530.3,177.2,530.7,177,531z"/>
</g>
<g>
	<path class="st66" d="M475,541c-1.4,1.7-3.6,3.3-5,5c-4.8,8-8.8,13-15.8,20.2c-7,7.2,0.6,14.7,5.8,21.8c9.4,13,19.3,26,29,39
		c-2.7-5.4-7.5-13.4-12-19c-7.4-9.1-16.5-19.6-19-31c4.6-2.8,12.8,0.8,13-5c6.9,3.5,14-5.5,22-7c0.1-4.1-2.5-7.4-5-11
		c-0.7-1.3-1.1-2.6-2-4c-3.8-2.7-6.9-7.3-7-12C477.7,538.8,476.2,539.9,475,541z"/>
</g>
<g>
	<path class="st67" d="M492,557c3.5,6.1,7.9,11.3,12,17c-2.4-4.5-6.5-8.2-8-13c4.8,0.4,10.5-2.5,17.1-4.9c6.6-2.4,12-3.2,18.1-6.3
		c6.2-3.1,9.2,4.8,14.8,9.2c-2-2.5-4-6.2-6-9c-1.9-2.8-4.1-5.4-6-8c0,1.1,1.5,1.7,1,3c-3.9-2.8-6.8-6.4-11-7c-2.1,4.3-6.7,1.2-6,5
		c-3.5-3.7-10.3,5.9-15,1c-2.5,3.8-10.8,4.2-14,3C486.6,551,490.1,553.7,492,557z"/>
</g>
<g>
	<path class="st68" d="M335,597c6.3-7.1,12.2-14.5,18-22c-6.7,4.6-10.4,14.3-17,17c4.2-7.7,15.5-17.6,17-29c-3.6,2.3-5.5-1.8-9-2
		c3.8-2.1-1.6-3.4-4-3c3.4-4.8-9.7-8.7-14-7c-1.6-1.3-3.5-4.9-6-3c0.6-2.5,2.4-4.8,4-7c-11.3,14-21.9,29.1-34,43
		c4.9,5.5,9.6,11.8,18,14c-1.8,3.4,0,6.4,0,10c4.7-0.5,8.9-0.4,9,5C324.6,611.2,329.9,602.7,335,597z"/>
</g>
<g>
	<path class="st69" d="M90,572c3.5-4.8,8.6-9.2,12-14c2.3-3.2,4.6-6.7,7-10C101.7,555.3,94.2,562.7,90,572z"/>
</g>
<g>
	<path class="st70" d="M504,574c0.7,1.3,1.1,3.8,2,5c6.1,8.5,13.1,16.2,19,25c2.8,4.1,6.7,8.3,9,13c-4.6,1.7-8.3,6.2-14,5
		c-3.5,9.2-16.8,6.9-22,14c5.2,10.2,17.1,20.6,20,31c6.7,4,17.8,0.1,26,1s19.5,0,28,0c-13.4-15.8-22.8-34.9-36-51
		c-6.7-8.2-14-17.3-18-27c3.5,1,6.5-0.1,10-1c-2.4-6.6,4.7-2.5,4-7c7.3,4.3,15-2.5,20-7c2.6,0.7,2.3,4.3,6,2c1.7,3.4,6.3,9.7,9,10
		c-6.5-9.3-12.7-20.4-21-28c-5.6-4.5-8.6-12.3-14.8-9.2c-6.1,3-11.5,3.9-18.1,6.3c-6.6,2.4-12.3,5.3-17.1,4.9
		C497.5,565.8,501.6,569.5,504,574z"/>
</g>
<g>
	<path class="st71" d="M546,559c8.3,7.6,14.5,18.7,21,28c7.7,11.2,16.9,26.8,27,36c0.3,0.2,1.8,0.8,2,1
		c-7.5-13.4-19.5-24.3-27.7-37.3c-8.2-13-18.2-25.1-28.3-36.7C542,552.8,544,556.5,546,559z"/>
</g>
<g>
	<path class="st72" d="M477,608c-2.2-3.5-8.3-12.2-1-13c7.3-0.8,12.1-0.9,16.7-5.3c4.6-4.4,8.5-6.2,14.2-7.8c0.5-1.3-1-1.9-1-3
		c-0.9-1.2-1.3-3.7-2-5c-4.1-5.7-8.5-10.9-12-17c-0.9-1.1-3.1-1.8-4-3c2.5,3.6,5.1,6.9,5,11c-8,1.5-15.1,10.5-22,7
		c-0.2,5.8-8.4,2.2-13,5C460.5,588.4,469.6,598.9,477,608z"/>
</g>
<g>
	<path class="st73" d="M90,572c-5.6,12.6-17.1,23.5-25,35c3.2-1.8,1.2,1.8,0,3c4.7,1.7,0.4,1.3,0,4c11.6,6.5,18,17.4,28,26
		c3.2-4.8,10.4-10,13.8-16.2s9.5-10.8,13.3-16.7c3.8-5.9,7.7-11.4,11.9-17.1c-3.7,1.6-4.3,6.3-8,8c1.5-10-16.2-2.4-12-14
		c-6.4,2.1-7.6-2.6-10-6c-2.4-3.4,0.5-8.5-4-9c0.7-4.1,3-8.4,4-11C98.6,562.8,93.5,567.2,90,572z"/>
</g>
<g>
	<path class="st74" d="M536,617c-0.7-2.2-0.6-3.2,1-5c11.2,5.1,20-11.6,32-8c0.3-2.7,2.3-5.2,4-7c6,9,13.2,18.3,21,26
		c-10.1-9.2-19.3-24.8-27-36c-2.7-0.3-7.3-6.6-9-10c-3.7,2.3-3.4-1.3-6-2c-5,4.5-12.7,11.3-20,7c0.7,4.5-6.4,0.4-4,7
		c-3.5,0.9-6.5,2-10,1C522,599.7,529.3,608.8,536,617z"/>
</g>
<g>
	<path class="st75" d="M477,608c4.5,5.6,9.3,13.6,12,19c1.5,2,2.6,4.1,4,6c0.4,1-4.5-11.1-4-15c3,4.2,3.8-2.4,8.1-2.9
		c4.2-0.5,7.9-4.4,12.9-3.1c0.2-6.9,9.7-2.1,10-8c2.2-0.5,5,2.9,5,0c-5.9-8.8-12.9-16.5-19-25c0,1.1,1.5,1.7,1,3
		c-5.7,1.6-9.6,3.4-14.2,7.8c-4.6,4.3-9.4,4.4-16.7,5.3C468.7,595.8,474.8,604.5,477,608z"/>
</g>
<g>
	<path class="st76" d="M602,633c8.6,11.5,17.2,23.2,25,35c-18.3,0-36.7,0-55,0c-8.5,0-19.8,0.9-28,0s-19.3,3-26-1
		c-5.2-3.1-7.7-12.1-12.2-16.8c-4.6-4.6-8.8-11.9-12.8-17.2c-1.4-1.9-2.5-4-4-6c-9.7-13-19.6-26-29-39c5.4,10,13.2,19.8,20.2,29.8
		c7,9.9,13.3,18.6,21.5,28.5c8.2,9.9,11.5,24.4,27.3,22.7s33.9,0.9,50,0s32.8,0.7,49,0C621.1,656.7,612.3,643.3,602,633z"/>
</g>
<g>
	<path class="st77" d="M536,617c13.2,16.1,22.6,35.2,36,51c18.3,0,36.7,0,55,0c-7.8-11.8-16.4-23.5-25-35c-2.7-2.7-4.3-6-6-9
		c-0.2-0.2-1.7-0.8-2-1c-7.8-7.7-15-17-21-26c-1.7,1.8-3.7,4.3-4,7c-12-3.6-20.8,13.1-32,8C535.4,613.8,535.3,614.8,536,617z"/>
</g>
<g>
	<path class="st78" d="M493,633c4,5.3,8.2,12.6,12.8,17.2c4.6,4.6,7,13.6,12.2,16.8c-2.9-10.4-14.8-20.8-20-31
		c5.2-7.1,18.5-4.8,22-14c5.7,1.2,9.4-3.3,14-5c-2.3-4.7-6.2-8.9-9-13c0,2.9-2.8-0.5-5,0c-0.3,5.9-9.8,1.1-10,8
		c-5-1.3-8.7,2.6-12.9,3.1c-4.3,0.5-5.1,7.2-8.1,2.9C488.5,621.9,493.4,634,493,633z"/>
</g>
<g>
	<path class="st79" d="M270,668c0,0,0.5,0,1,0c1.8-19.8,0.9-42.9-1-62C270,626.4,268.2,647.7,270,668z"/>
</g>
<g>
	<path class="st80" d="M389,93c-4.4,5.8,0.1,17.7-1,25s0,18.4,0,26c0.2,2.6,1.9,6.7,1,10c1.3,0,2.7,0,4,0c3.6-0.6,7.4-8,11.8-9.2
		c4.4-1.2,7.8-6.6,12-9c4.2-2.4,8.5-7.1,13.2-8.8c2.3,13.2,0.4,27.4,1,41c0,15.9-0.5,32.9,1,48c0-15.7,0-31.3,0-47
		c0-24.9-1.2-52.4,12.3-72.7C457.8,76,459.2,57.7,472,38c1.2-1.9,2.1-3.8,4-5c-2.7-2.8-13.3,7.9-17.8,10.2c-4.5,2.3-11.8,9.8-17,13
		c-5.3,3.1-11.9,8.8-17.2,12.9c-5.2,4.1-12.5,7.8-17.3,12.7C401.9,86.6,393.7,88.6,389,93z"/>
</g>
<g>
	<path class="st81" d="M472,38c-0.1,1.9,4.5,8.5,3,14s0.6,13,0,19s0.3,12.8,0,19s0.1,12.6,0,19s0,13.5,0,20c0,32.6-2.9,66.6,0,99
		c0.2-0.2,1,0,1,0c0-64.7,0-129.3,0-194c0,0-0.2-0.9,0-1C474.1,34.2,473.2,36.1,472,38z"/>
</g>
<g>
	<path class="st82" d="M476,228c0,26,0,52,0,78c3.6-8.5,0-20.3,1-30s-0.4-20.1,0-30s-0.2-20.9,0-31s0-19.9,0-30s0.1-21,0-31
		s0.3-20.1,0-30s0.7-21.4,0-31s1.6-21.1,0-30s4-22.2-1-29C476,98.7,476,163.3,476,228z"/>
</g>
<g>
	<path class="st83" d="M432,169c0.8,8.6,1.5,18.7,1,28c1.7-1.2,0.4-5.6,4-5c0.4,3.4,11.1-3.2,14.9-0.9c3.7,2.3,14.9,2,12.1-7.1
		c4.6-1.3,3.9,4.9,9,3c1-18.2,0.3-39.5,2-58c0-6.5-0.1-13.6,0-20s-0.3-12.8,0-19s-0.6-13,0-19s-1.5-13.5,0-19s-3.1-12.1-3-14
		c-12.8,19.7-14.2,38-27.7,58.3C430.8,116.6,432,144.1,432,169z"/>
</g>
<g>
	<path class="st84" d="M387,304c0,0,1,0,1,0c0-7.3,0-14.7,0-22c0-41.3,0-82.7,0-124c0-4.7,0-9.3,0-14c0-7.6-1.1-18.7,0-26
		s-3.4-19.2,1-25c-7,6.6-0.1,24-2,34s0.8,24,0,35s0.4,24.5,0,36s0.2,23.3,0,35s0.1,24.3,0,36S387,292.3,387,304z"/>
</g>
<g>
	<path class="st85" d="M346,125c-6.9,5.4-12.6,10.8-20.2,15.8c-7.6,5-12.9,9.8-21,15c-8.1,5.2-11.5,9.8-21,15
		C274.2,176,270,182.2,270,194c0.3-2.9,1.9-7.4,1-11c2.4,15.5-0.2,33.1,2,49c1.5-3.2,8.2,0,7,4c3.1,0,9-1,8,4
		c8.3-0.2,15.7,4.7,18,12c3.4-4.4,3.3,4,6,0c0.5,1.9-1.1,4.9,1,6c0-13.9,0.6-29.3,0-43s14.6-14.6,21-23c-2.7,1.6-5.9,4.1-10,3
		c-1.2-4.9-14.2-2.4-12-11c-5.8,0.9-10.5-1.8-16-2c-6-7.9-2.7-15,4.7-20.3c7.4-5.3,11.3-10.3,18.5-14.5c7.3-4.1,12-10.1,19-14
		c6.9-3.9,11.7-12.9,19.8-11.2c0-1.7,0-3.3,0-5C356.4,116.1,347.9,124.1,346,125z"/>
</g>
<g>
	<path class="st86" d="M358,122c0,17.7,0,35.3,0,53c1.1-5,1.6-13.4,1-19s1.1-15.2,0-20s2.9-16.8-1-19C358,118.7,358,120.3,358,122z"
		/>
</g>
<g>
	<path class="st87" d="M313,258c0,26,0,52,0,78c0,8,0.3,16.7,1,24c0-11,0-22,0-33c0-21,0-42,0-63c0-12.9,1-23.9,0-37s0.6-18.6,11-26
		c9.9-7.1,19.8-14.8,30-21c0.2-0.1,2.9-1.9,3-2c-0.2-0.9,0-2.1,0-3c0-17.7,0-35.3,0-53c-8.1-1.7-12.8,7.3-19.8,11.2
		c-7,3.9-11.7,9.9-19,14c-7.3,4.2-11.1,9.1-18.5,14.5c-7.4,5.3-10.8,12.4-4.7,20.3c5.5,0.2,10.2,2.9,16,2c-2.2,8.6,10.8,6.1,12,11
		c4.1,1.1,7.3-1.4,10-3c-6.4,8.4-21.6,9.3-21,23S313,244.1,313,258z"/>
</g>
<g>
	<path class="st88" d="M270,668c-1.8-20.3,0-41.6,0-62c0-68.7,0-137.3,0-206s0-137.3,0-206c0-11.8,4.2-18,13.8-23.2
		c9.5-5.2,12.9-9.8,21-15c8.1-5.2,13.4-10,21-15c7.6-5,13.3-10.4,20.2-15.8c-5.7,2.8-12.7,6.4-17.7,10.3c-5,3.9-10.1,7.8-15.1,11.9
		c-5,4.1-10.4,7.2-15.5,11.5c-5.1,4.3-11.2,6.6-16,11c-4.8,4.4-11.9,6.6-12.8,14.2s0.4,18.6,0,27s0,16.5,0,25s0,18.2,0,27
		c0,8.8,0,18.1,0,27s0,18,0,27s0,17.9,0,27s0,18.9,0,28s0,18,0,27s0,18,0,27s0,18,0,27s0,18,0,27s0,18,0,27c0,9-0.1,18.1,0,27
		s-0.1,18.2,0,27s-0.3,18.3,0,27s-0.7,18.7,0,27s-1.6,19.6,0,27S265,663.1,270,668z"/>
</g>
<g>
	<path class="st89" d="M393,154c1.1,0.4,5.5-0.9,3,3c7.3,0.2,12.1,4.5,20,3c-1.2,8.1,8.8-0.1,6,8c0.8-1.3,3.9-5,4-1
		c3.3-0.3,2.3-3.4,4-5c0.5,1.9-1.1,4.9,1,6c-0.6-13.6,1.3-27.8-1-41c-4.7,1.6-9.1,6.4-13.2,8.8c-4.2,2.4-7.6,7.8-12,9
		C400.4,146,396.6,153.4,393,154z"/>
</g>
<g>
	<path class="st90" d="M432,169c0,15.7,0,31.3,0,47c0,5.3,0,10.7,0,16c0.3,3.3,1.8,8,1,12c3.8-5.2,2.8-2,3,4c3,0.1,4.6-3.3,4-6
		c5.2,0.8,9.2-1.9,14-2s12.7,2.3,12-4c2.6,0.1,2.1,4.6,6,3c0.7-3.7,1.2-8,3-11c-2.9-32.4,0-66.4,0-99c-1.7,18.5-1,39.8-2,58
		c-5.1,1.9-4.4-4.3-9-3c2.8,9.1-8.4,9.4-12.1,7.1c-3.7-2.3-14.5,4.3-14.9,0.9c-3.6-0.6-2.3,3.8-4,5C433.5,187.7,432.8,177.6,432,169
		z"/>
</g>
<g>
	<path class="st91" d="M667,152c6.7-1.1,13.6-4.4,20.1-5.9c6.5-1.5,12.5-6.6,18.9-7.1c1.2-0.1,1.9-0.5,3-1c0.7,3.9-1.5,7.1-1,11
		c2.7-8.3,2.5-12.2-5.8-9.8c-8.2,2.4-10.5,4.1-17.5,6.5C677.6,148.1,673.5,150.2,667,152z"/>
</g>
<g>
	<path class="st92" d="M706,139c-2.9,2.2-3.9,9.1-7.8,12.2c-3.8,3.1-5.1,7.8-9.5,11.5c-4.3,3.7-4.3,7.1-9.5,11.5
		c-5.2,4.4-2.9,5.6-9,12c-6.1,6.4-13,16.8-18.5,23.5c-5.5,6.8-6,5.9-9.5,11.5c-3.6,5.6-5.9,6.9-9.5,11.5c-3.5,4.6-6.2,7-9.8,11.2
		c4-4,7.7-6,12-8c2.4,3.3,8,4.4,13,4c-2,5.4,6,2.6,4,8c5.3-1.3,7.2,4.7,12,4c-1,4.5,3.7,8.1,8,7c-0.2,6.2,7.4,5,12,5
		c-1.3,4.5,4.5,4.1,5,8c4-33.1,8.7-66.8,15-99c0.7-7.9,2.9-16.1,4-24c-0.5-3.9,1.7-7.1,1-11C707.9,138.5,707.2,138.9,706,139z"/>
</g>
<g>
	<path class="st93" d="M667,152c-48.1,13.5-94.6,31.3-142,47c11.3,16.6,32.1,24.9,44,41c-8,9.1-16.2,18.8-23.2,28.8
		c-7,9.9-17.9,18.2-22.8,29.2c-7.7,17.7-29.7,32.8-39,50c2.9,2.3,5,4.4,4,10c4.6-2,12.9-2.7,12,5c5.8,1.2,10.7,0.3,15,4
		c-24.6,35.3-56.2,66.9-79,103c4.8-1.3,6.3-7.9,11-10c19.7-23.1,38.3-46.4,57-70c7.4-9.3,14.6-19.6,23-28
		c30.1-40.5,63.3-79.8,96-118c3.6-4.2,6.2-6.6,9.8-11.2c3.5-4.6,5.9-5.9,9.5-11.5c3.6-5.6,4-4.7,9.5-11.5
		c5.5-6.8,12.4-17.1,18.5-23.5c6.1-6.4,3.8-7.5,9-12c5.2-4.4,5.2-7.8,9.5-11.5c4.3-3.7,5.6-8.4,9.5-11.5c3.8-3.1,4.9-10,7.8-12.2
		c-6.5,0.5-12.5,5.5-18.9,7.1C680.6,147.6,673.7,150.9,667,152z"/>
</g>
<g>
	<path class="st94" d="M388,158c0.1-0.4,1.4-1.8,2-2c0.6,25.8-1.3,53.2,1,78c1-2.6,3-0.4,5-2c-0.8,3.6,2.4,4.7,3,8
		c5.7-1.8,12.4-1.3,19,0c0.1-7.9,13.8,2.7,12-8c1.4,31.7,1,63.9,1,96c0,5.4,1.2,11.6,0,17s2.1,12.4,2,16c0.6-0.6,1.4-1.2,2-2
		c0.6-0.9,1.3-1.3,2-2c3.5-4.7,7.3-9.4,11-14c-4.4,3.5-11.2,11.5-16,16c0-20.3,0-40.7,0-61c0-22,0-44,0-66c0-5.3,0-10.7,0-16
		c-1.5-15.1-1-32.1-1-48c-2.1-1.1-0.5-4.1-1-6c-1.7,1.6-0.7,4.7-4,5c-0.1-4-3.2-0.3-4,1c2.8-8.1-7.2,0.1-6-8c-7.9,1.5-12.7-2.8-20-3
		c2.5-3.9-1.9-2.6-3-3c-1.3,0-2.7,0-4,0c0.9-3.3-0.8-7.4-1-10C388,148.7,388,153.3,388,158z"/>
</g>
<g>
	<path class="st95" d="M388,158c0,41.3,0,82.7,0,124c1.1,11.6,3.2,23.4,4,35c4.5,3.6,9.9,4.3,16,3c6.1-1.2,12.4,2.9,16,0
		c1.9,2,3.4,6.1,6,2c0.5,1.9-1.1,4.9,1,6c0-32.1,0.4-64.3-1-96c1.8,10.7-11.9,0.1-12,8c-6.6-1.3-13.3-1.8-19,0c-0.6-3.3-3.8-4.4-3-8
		c-2,1.6-4-0.6-5,2c-2.3-24.8-0.4-52.2-1-78C389.4,156.2,388.1,157.6,388,158z"/>
</g>
<g>
	<path class="st96" d="M623,244c-32.7,38.2-65.9,77.5-96,118c5.8-5.8,11-11.7,15.9-18.1c4.9-6.4,10.7-12.6,15-19
		c4.3-6.4,10.8-17.1,18.1-12.9c-1.8,8.7,11.8,9.9,16,8c2,3.8,7.9,4.6,8,10c2.8,0.1,4.7,0.2,7,1c1.2-1.3,1.6-3.1,3-4
		c2.3-2.6,4.1-6.2,7-8c6.5-8,10.5-16,18.2-22.8s15.4,7.3,23,12.5c7.6,5.2,14,15.9,22.8,19.2c4.5-10.6,1.3-24.1,7-34
		c6.8-40,12.2-80.5,16-121c-6.3,32.2-11,65.9-15,99c-0.5-3.9-6.3-3.5-5-8c-4.6,0-12.2,1.2-12-5c-4.3,1.1-9-2.5-8-7
		c-4.8,0.7-6.7-5.3-12-4c2-5.4-6-2.6-4-8c-5,0.4-10.6-0.7-13-4C630.7,238,627,240,623,244z"/>
</g>
<g>
	<path class="st97" d="M355,180c1,0.1,2-0.1,3,0c0,20,0,40,0,60c0,14.3,0,28.7,0,43c0,1.7,0,3.3,0,5c0,0.1,1,0,1,0
		c0-18.3,0.7-37.8,0-56s2.3-36.5-1-54C357.9,178.1,355.2,179.9,355,180z"/>
</g>
<g>
	<path class="st98" d="M325,201c-13.8,11.6-10,26.7-10,44c1.3,0.5,4.2,0,2,3c6.4,1.2,10.6-2.2,15,0c-1.8-4.6,10.5-7.6,8-2
		c2.5-0.9,5.1-3.4,6-6c1.8-2.1,2.7,6.3,3.7,3.6c1-2.7,1.1-4.8,5.3-3.6c-0.4-2.9,0.3-5.4,1-8c2.6,1.6-0.7,6.4,2,8c0-20,0-40,0-60
		c-1-0.1-2,0.1-3,0C344.8,186.2,334.9,193.9,325,201z"/>
</g>
<g>
	<path class="st99" d="M270,194c0,68.7,0,137.3,0,206c3.2-33-0.3-68.2,1-102c1.8,8.7,1.3,18.9,3,28c1.1-2.4,1.8-6.4,6-5
		c-4,9.3,10.6,6.3,8-1c9.9-1.9,16.5,3.4,23,7c0-3.3,0-6.7,0-10c2.9,5.3-0.9,13.8,2,19c0-26,0-52,0-78c-2.1-1.1-0.5-4.1-1-6
		c-2.7,4-2.6-4.4-6,0c-2.3-7.3-9.7-12.2-18-12c1-5-4.9-4-8-4c1.2-4-5.5-7.2-7-4c-2.2-15.9,0.4-33.5-2-49
		C271.9,186.6,270.3,191.1,270,194z"/>
</g>
<g>
	<path class="st100" d="M314,264c0.9,9.6,1.4,20.7,1,31c4.1-3.1,10-2.4,4-7c2.4,1.7,9.6,4.3,9-1c2.6-0.8,7.3,3.9,6-1
		c5.6,4.7,13.1-5.2,20-1c-7.3,0.9-5,3.1,1,1c-0.4-5.5,1.8-10.4,1-16c2.8,3.3-0.9,9.8,2,13c0-14.3,0-28.7,0-43c-2.7-1.6,0.6-6.4-2-8
		c-0.7,2.6-1.4,5.1-1,8c-4.2-1.2-4.3,1-5.3,3.6c-1,2.7-1.9-5.7-3.7-3.6c-0.9,2.6-3.5,5.1-6,6c2.5-5.6-9.8-2.6-8,2
		c-4.4-2.2-8.6,1.2-15,0c2.2-3-0.7-2.5-2-3c0-17.3-3.8-32.4,10-44c-10.4,7.4-12,12.9-11,26S314,251.1,314,264z"/>
</g>
<g>
	<path class="st101" d="M175,251c-2.5,2.8-8.4,7.8-13,11c-0.9,3.8,5.9,4.9,2,7c4.4,0.1,8.2,6.4,10,10c4.7-2.7,9,0.8,10,5
		c1.8,1.9,2.6-6.1,3.7-3.6c1.1,2.5,2.4,3.6,5.3,1.6c2.2,1.6-2.7,3.1-1,6c4.3,0.4,8.4,0.6,9-4c0.9,5.3,8.9,8.9-1,8
		c2.3,1.8,7.4,1.7,9-1c3.5,4,1.1,1.2-1,5c10-1.8,20.9,2.9,24,11c7.4-1.1,6.1-7.6,8-14c0-29.7,0-59.3,0-89c-2.4-1.3-8.4,6.3-11.8,7.2
		c-3.4,0.9-6.8,6.3-11,8c-4.2,1.7-4.8,5.3-10,8c-5.2,2.7-4.6,3.4-11.1,7.9C189.5,239.6,181.3,246.1,175,251z"/>
</g>
<g>
	<path class="st102" d="M240,293c0,10.3,0,20.7,0,31c3.4-4.6,0.1-14,1-20s-0.3-13.7,0-20s0-13.7,0-20s0.4-15,0-21s1.1-15,0-20
		s2.9-16.8-1-19C240,233.7,240,263.3,240,293z"/>
</g>
<g>
	<path class="st103" d="M432,232c0,22,0,44,0,66c0.6,6.6,1.6,14.7,1,22c5.3-1.3,8.8-3.2,15-2c-3.7,3.6-3.8,2.3,0,6
		c0.8-3.4,3.5-5.5,3,0c4.2-1.6,4.3,2.2,7,3c2.5-3.2,6-8,9.2-10.8c3.2-2.7,6.6-10.5,7.8-8.2c0.1-0.2,1,0,1,0c0-0.5,0-1.5,0-2
		c0-26,0-52,0-78c0,0-0.8-0.2-1,0c-1.8,3-2.3,7.3-3,11c-3.9,1.6-3.4-2.9-6-3c0.7,6.3-7.2,3.9-12,4s-8.8,2.8-14,2c0.6,2.7-1,6.1-4,6
		c-0.2-6,0.8-9.2-3-4C433.8,240,432.3,235.3,432,232z"/>
</g>
<g>
	<path class="st104" d="M154,265c-7.1,7.2-0.2,22.8-2,33s0.8,24.9,0,36s0.3,24.5,0,36s-0.1,24.4,0,36s-0.9,24.2,1,35
		c5.6-1.6,7.5-12.9,12.2-16.8c4.8-3.9,8.5-11.4,12.8-16.2c4.3-4.8,7.8-11.7,12.2-16.8c4.3-5.2,8.5-11,12.5-16.5s8.8-10.8,12.5-16.5
		c3.7-5.7,9-10.7,12.5-16.5c3.5-5.8,9.9-10.3,12.2-16.8c-2.7-1.2-7.5,7.3-10.8,10.2c-3.3,3-6.6,10.2-10,14
		c-3.4,3.8-7.5,9.5-11.2,12.8c-2.3-2.8-8.7,2.1-8-6c-5.9-3.5-17.6-1-20-8c-2.5,4.9-5.6-1.3-9,3c1.5-3.7-2.2-8.5-6-5
		c-1.6-1.7-3.8-3-3-6c-4.9,6.6-2.8-4.8-7,0c-0.7-13.2-1.8-29.8-1-43s-6.9-29,8-35c4.6-3.2,10.5-8.2,13-11
		C168.4,256.1,160.4,260.1,154,265z"/>
</g>
<g>
	<path class="st105" d="M240,325c0,0,0-0.5,0-1c0-10.3,0-20.7,0-31c-1.9,6.4-0.6,12.9-8,14c-3.1-8.1-14-12.8-24-11
		c2.1-3.8,4.5-1,1-5c-1.6,2.7-6.7,2.8-9,1c9.9,0.9,1.9-2.7,1-8c-0.6,4.6-4.7,4.4-9,4c-1.7-2.9,3.2-4.4,1-6c-2.9,2-4.2,0.9-5.3-1.6
		c-1.1-2.5-1.9,5.6-3.7,3.6c-1-4.2-5.3-7.7-10-5c-1.8-3.6-5.6-9.9-10-10c3.9-2.1-2.9-3.2-2-7c-14.9,6-7.2,21.8-8,35s0.3,29.8,1,43
		c4.2-4.8,2.1,6.6,7,0c-0.8,3,1.4,4.3,3,6c3.8-3.5,7.5,1.3,6,5c3.4-4.3,6.5,1.9,9-3c2.4,7,14.1,4.5,20,8c-0.7,8.1,5.7,3.2,8,6
		c3.7-3.3,7.8-9,11.2-12.8c3.4-3.8,6.7-11,10-14C232.5,332.3,237.3,323.8,240,325z"/>
</g>
<g>
	<path class="st106" d="M314,327c0.7,7.6,1.5,16.7,1,25c5.1-3.3,11,2,18,0s15.5-3.9,21,2c3.5-7.2,1.5-16,2-24c2.4,1-0.5,5,2,6
		c0-16,0-32,0-48c0-1.7,0-3.3,0-5c-2.9-3.2,0.8-9.7-2-13c0.8,5.6-1.4,10.5-1,16c-6,2.1-8.3-0.1-1-1c-6.9-4.2-14.4,5.7-20,1
		c1.3,4.9-3.4,0.2-6,1c0.6,5.3-6.6,2.7-9,1c6,4.6,0.1,3.9-4,7c0.4-10.3-0.1-21.4-1-31C314,285,314,306,314,327z"/>
</g>
<g>
	<path class="st107" d="M153,441c-1.9-10.8-0.9-23.4-1-35s-0.3-24.5,0-36s-0.8-24.9,0-36s-1.8-25.8,0-36s-5.1-25.8,2-33
		c-5.8,4.4-2.4,13-3,20s0.3,15.7,0,23s0.1,15.5,0,23s0.1,15.6,0,23s0,15.8,0,23s0,16.2,0,23s-0.1,17.3,0,23S149.8,441.9,153,441z"/>
</g>
<g>
	<path class="st108" d="M388,304c0,12.2-0.5,24.9,0,37s-1.3,25.1,0,37s-2.5,25.3-1,36c0,1,0,2,0,3c17.7-15.7,30.3-38,46-56
		c0.1-3.6-3.2-10.6-2-16s0-11.6,0-17c-2.1-1.1-0.5-4.1-1-6c-2.6,4.1-4.1,0-6-2c-3.6,2.9-9.9-1.2-16,0c-6.1,1.3-11.5,0.6-16-3
		c-0.8-11.6-2.9-23.4-4-35C388,289.3,388,296.7,388,304z"/>
</g>
<g>
	<path class="st109" d="M358,336c0,15,0,30,0,45c0,21,0,42,0,63c0,16.9,2.8,36.4,0,53c12.7-12.7,25.1-29.2,38-43
		c0.5-0.5,0.6-1.4,1-2c-13.9,13-23.3,29.9-37,43c-1.8-68.5-1-138.1-1-207c0,0-1,0.1-1,0C358,304,358,320,358,336z"/>
</g>
<g>
	<path class="st110" d="M617,319c0.6-0.4,1.4-0.6,2-1c5.5-6.9,9.1-8.6,14.2-16.8s11.6-1.6,17,3.5c5.5,5.1,11.3,9.1,16.5,14.5
		c5.1,5.5,11.1,8.3,16.2,13.8c2.1-12.9,2.8-26.1,5-39c-5.7,9.9-2.5,23.4-7,34c-8.7-3.3-15.2-14-22.8-19.2
		c-7.6-5.2-15.2-19.3-23-12.5S623.5,311,617,319z"/>
</g>
<g>
	<path class="st111" d="M270,400c0,68.7,0,137.3,0,206c1.9,19.1,2.8,42.2,1,62c16.2,0,37.4-0.8,53,0s19.7-13.8,28.7-23.3
		c9-9.5,14.8-19.2,23.4-28.6c8.5-9.5,15.3-19.1,23.2-28.8s15.4-19.1,23.5-28.5s15.2-19.3,23.2-28.8c10-11.7,18.8-24.8,29-36
		c-11.4,7-17.4,21.2-26.2,30.8s-18.4,20.6-26.5,30.5c-8.1,9.9-16.7,21.9-24.2,28.8c-3.2-4.8-8.5-6.8-14-8c2.3-9.4-8.2-7.5-13-5
		c-3.3-2.6-6.3-4.1-10-5c-2.2,3-5,5.9-8,8c-0.2,0.4,0,1,0,1c-5.8,7.5-11.7,14.9-18,22c-5.5,7.7-11.8,14.6-18.2,21.8
		s-10.7,15.9-18.5,22.5s-9.1,17-19,22c-9.9,5-7.2-17.9-7.3-28.3s-1.5-26.8,5-36c-1.5,1.8-4.3,3.4-6,5c0.7-53.2-1.3-107.6,1-160
		c1.3,3.5,1.8,7.8,3,11c0.7-2.5,1.9-5.5,0-8c2.6,3.5,5,1.2,9,3c4.1,1.8,7.8,3.7,12,0c-1.3,6.9,8,3,12,4c-0.7,3.6,1.2,6.5,1,10
		c2.6-1.6-0.7-6.4,2-8c4.5,24-0.1,53,3,78c0-35.3,0-70.7,0-106c0-9.3,0-18.7,0-28c0-13.3,0-26.7,0-40c-0.7-7.3-1-16-1-24
		c-2.9-5.2,0.9-13.7-2-19c0,3.3,0,6.7,0,10c-6.5-3.6-13.1-8.9-23-7c2.6,7.3-12,10.3-8,1c-4.2-1.4-4.9,2.6-6,5
		c-1.7-9.1-1.2-19.3-3-28C269.7,331.8,273.2,367,270,400z"/>
</g>
<g>
	<path class="st112" d="M448,343c4.6-5.8,9.6-12.6,15-18c4-5.4,9.8-10.8,12-17c-1.2-2.3-4.5,5.5-7.8,8.2c-3.2,2.7-6.8,7.5-9.2,10.8
		c-2.7-0.8-2.8-4.6-7-3c0.5-5.5-2.2-3.4-3,0c-3.8-3.7-3.7-2.4,0-6c-6.2-1.2-9.7,0.7-15,2c0.6-7.3-0.4-15.4-1-22c0,20.3,0,40.7,0,61
		C436.8,354.5,443.6,346.5,448,343z"/>
</g>
<g>
	<path class="st113" d="M422,422c-3.7,7.8-14,15.7-17,25c10.1-9.1,17.9,1.7,27,5c0.7,5.1-3.5,5-2,11c8.2-5.8,4.4,6.6-0.8,11.2
		c-5.2,4.6-8.5,11.7-13.2,16.8c-4.6,5.2-9.4,10.7-13.8,16.2c-4.4,5.5-7.9,12.2-12.2,17.8c7-2.6,9.6-11.2,16-15
		c11.4-11.4,22.5-25.3,32-38c3-4,5.7-8.2,9-12c-4.7,2.1-6.2,8.7-11,10c22.8-36.1,54.4-67.7,79-103c-4.3-3.7-9.2-2.8-15-4
		c0.9-7.7-7.4-7-12-5c1-5.6-1.1-7.7-4-10c9.3-17.2,31.3-32.3,39-50C491.4,340.5,453.7,379.3,422,422z"/>
</g>
<g>
	<path class="st114" d="M387,414c-1.5-10.7,2.3-24.1,1-36s0.5-24.9,0-37s0-24.8,0-37c0,0-1,0-1,0c0,12.1-0.5,24.9,0,37
		s-1.2,25.1,0,37S384.1,402.6,387,414z"/>
</g>
<g>
	<path class="st115" d="M463,325c3.9-3.9,13-11.2,13-17c0,0-0.9-0.2-1,0C472.8,314.2,467,319.6,463,325z"/>
</g>
<g>
	<path class="st116" d="M527,362c-8.4,8.4-15.6,18.7-23,28c6-6,11.4-11,17-17c3.4,5.7,9,3.3,15,3c-8.8,3.2,9.1,1.2,12,4
		c-1.1,3.6,3.1,5.4,2,9c3-3.4,6.1,1,10-1c3.2-3.9,6.5-10.3,11-13c14-14,27.8-32,39-48c-1.4,0.9-1.8,2.7-3,4c-2.3-0.8-4.2-0.9-7-1
		c-0.1-5.4-6-6.2-8-10c-4.2,1.9-17.8,0.7-16-8c-7.2-4.1-13.8,6.5-18.1,12.9c-4.3,6.4-10.1,12.6-15,19C538,350.3,532.8,356.2,527,362
		z"/>
</g>
<g>
	<path class="st117" d="M617,319c-2.9,1.8-4.7,5.4-7,8c-11.2,16-25,34-39,48c0.6-0.4,1.4-0.6,2-1c7.7-4.7,12.5-14.9,18.3-21.7
		c5.8-6.8,13-14.4,18.7-21.3c1.6-2.4,3.2-5.5,5-8c0.9-1.2,2.1-2,3-3c0.4-0.6,0.5-1.5,1-2C618.4,318.4,617.6,318.6,617,319z"/>
</g>
<g>
	<path class="st118" d="M615,323c0.9-1,2.2-1.6,3-3C617.1,321,615.9,321.8,615,323z"/>
</g>
<g>
	<path class="st119" d="M314,360c0,13.3,0,26.7,0,40c0.4,3.8,2.3,8.6,2,13c1.9-1.8,4.9,1.2,4-3c5.4-0.4,11.4,1.3,16-2
		c-2.6,8.4,6.9,5.6,12,6c-1.3-6.4,2.4,0.1,3-4c2.5,1.3-0.6,5.7,2,7c4.5-10.5-0.5-25.4,5-36c0-15,0-30,0-45c-2.5-1,0.4-5-2-6
		c-0.5,8,1.5,16.8-2,24c-5.5-5.9-14-4-21-2s-12.9-3.3-18,0c0.5-8.3-0.3-17.4-1-25C314,338,314,349,314,360z"/>
</g>
<g>
	<path class="st120" d="M573,374c-0.5,0.5-0.6,1.4-1,2c13.3-13.4,27.7-29.1,38-45c-5.7,6.9-12.9,14.5-18.7,21.3
		C585.5,359.1,580.7,369.3,573,374z"/>
</g>
<g>
	<path class="st121" d="M435,359c0.7-0.7,1.3-1.1,2-2C436.3,357.7,435.6,358.1,435,359z"/>
</g>
<g>
	<path class="st122" d="M504,390c-18.7,23.6-37.3,46.9-57,70c-3.3,3.8-6,8-9,12c-0.2,0.7,1.4,5.7-1,8c4.3-1.2,11.6,8.1,18.7,7.3
		c7.1-0.8,16.8,8.1,22.1,1.4c5.3-6.6,9.5-10.7,14-17c4.5-6.3,8.6-10.9,13.5-16.5s8.8-10.8,13.5-16.5c4.7-5.6,9.7-11.2,14-17
		c4.3-5.8,9.1-10.7,13.5-16.5s10.2-11,13.8-17.2c-3.9,2-7-2.4-10,1c1.1-3.6-3.1-5.4-2-9c-2.9-2.8-20.8-0.8-12-4
		c-6,0.3-11.6,2.7-15-3C515.4,379,510,384,504,390z"/>
</g>
<g>
	<path class="st123" d="M139,507c9.1-6.4,13.5-18.7,21.2-26.8c7.8-8.1,13.4-18.6,20.5-27.5c7.1-8.8,14.7-18.6,21.2-27.8
		c3.5-4.8,7.5-9.4,11-14c7.3-12.6,18.1-23.6,26-36c2.3,18.8,0.3,39.5,1,59c0,4.7,0,9.3,0,14c0.3-0.2,1,0,1,0c0-24.7,0-49.3,0-74
		c-14.1,11.5-24.2,29.4-35.2,43.8c-11,14.4-23.2,29.5-33.5,44.5C162,477.2,145.7,489.9,139,507z"/>
</g>
<g>
	<path class="st124" d="M571,375c-4.5,2.7-7.8,9.1-11,13c-3.6,6.3-9.4,11.4-13.8,17.2s-9.2,10.7-13.5,16.5c-4.3,5.8-9.3,11.4-14,17
		c-4.7,5.7-8.6,10.8-13.5,16.5s-9,10.2-13.5,16.5c-4.5,6.3-8.7,10.4-14,17c-5.3,6.6-15-2.2-22.1-1.4c-7.1,0.8-14.4-8.6-18.7-7.3
		c2.4-2.3,0.8-7.3,1-8c-9.5,12.7-20.6,26.6-32,38c-12.7,18.2-29.1,34.4-43,52c-3,3.8-7.9,7.7-10,12c3-2.1,5.8-5,8-8
		c3.7,0.9,6.7,2.4,10,5c4.8-2.5,15.3-4.4,13,5c5.5,1.2,10.8,3.2,14,8c7.5-6.8,16.2-18.8,24.2-28.8c8.1-9.9,17.6-21,26.5-30.5
		S463.6,501,475,494c0.5-0.3,1.6-0.6,2-1c4.4-6.6,10.1-12.7,15-19c20.7-26.3,42.9-51.3,64-77c4.8-6.8,11.5-13.7,16-21
		c0.4-0.6,0.5-1.5,1-2C572.4,374.4,571.6,374.6,571,375z"/>
</g>
<g>
	<path class="st125" d="M213,411c-2.2,3.8-6.3,7.7-5,12c4.3-1.2,9.2,2.5,15,1c0.3,5,5.1,4,9,4c-2,8.6,3.9,2.8,8,6
		c-0.7-19.5,1.3-40.2-1-59C231.1,387.4,220.3,398.4,213,411z"/>
</g>
<g>
	<path class="st126" d="M314,400c0,9.3,0,18.7,0,28c0.6,6,0.7,13,4,18c6.2,0.5,10.4-5.2,16-2c0.7-7.1,17.9-4.8,21-2
		c0-4.1-0.4-8.2,1-12c2.9,3.6-0.9,10.5,2,14c0-21,0-42,0-63c-5.5,10.6-0.5,25.5-5,36c-2.6-1.3,0.5-5.7-2-7c-0.6,4.1-4.3-2.4-3,4
		c-5.1-0.4-14.6,2.4-12-6c-4.6,3.3-10.6,1.6-16,2c0.9,4.2-2.1,1.2-4,3C316.3,408.6,314.4,403.8,314,400z"/>
</g>
<g>
	<path class="st127" d="M492,474c22.2-24.1,45.2-50.1,64-77C534.9,422.7,512.7,447.7,492,474z"/>
</g>
<g>
	<path class="st128" d="M202,425c-5.9,12.6-20.1,24.8-25,39c7.9-1,14,7.1,23,7c-1.1,3.8,3.1,2.5,5,4c-1,4.7,2.8,5.8,5,9
		c9.2-9.1,15.3-21.3,25-30c2-2.8,2.4-2.5,5-4c0-0.5,0-1.5,0-2c0-4.7,0-9.3,0-14c-4.1-3.2-10,2.6-8-6c-3.9,0-8.7,1-9-4
		c-5.8,1.5-10.7-2.2-15-1c-1.3-4.3,2.8-8.2,5-12C209.5,415.6,205.5,420.2,202,425z"/>
</g>
<g>
	<path class="st129" d="M397,452c-0.4,0.6-0.5,1.5-1,2c-1.9,8-14.3,17-19.2,24.8s-5,6.5-10,13c-5.1,6.4-1.9,8.5,1.3,14.3
		c10.3,0.6,10.7,5.5,19.7,8.3c8.9,2.8-0.6,11.3-5,17.4c-4.4,6.1-10,11.3-14.5,17.5s-10,12.9-13.2,19.8c3.1-1.7,4.9-5.3,8-7
		c13.9-17.6,30.3-33.8,43-52c-6.4,3.8-9,12.4-16,15c4.3-5.6,7.8-12.3,12.2-17.8c4.4-5.5,9.2-11,13.8-16.2c4.7-5.2,8-12.3,13.2-16.8
		c5.1-4.6,9-17,0.8-11.2c-1.5-6,2.7-5.9,2-11c-9.1-3.3-16.9-14.1-27-5c3-9.3,13.3-17.2,17-25C414.5,432.1,403.7,441,397,452z"/>
</g>
<g>
	<path class="st130" d="M139,507c0,0,0.2,0.6,0,1c-1,1.6-1.9,3.5-3,5c0,0.1-0.4,3-1,4c0.9-0.5,4.1-1,3,2c1.2-2,3.2-3.7,6-3
		c-6.4,3.3,3.6,8.5,8,8c0.9,8.5,10.1,6,16,10c0.8,3.8-5.7,0.1-5,4c7.1,2.8,9-3.2,14-7c0.2-0.3,0.9-0.7,1-1
		c6.5-13.9,18.8-25.5,27.8-38.2c9-12.7,20.3-25,29.2-37.8c-9.7,8.7-15.8,20.9-25,30c-2.2-3.2-6-4.3-5-9c-1.9-1.5-6.1-0.2-5-4
		c-9,0.1-15.1-8-23-7c4.9-14.2,19.1-26.4,25-39c-6.6,9.1-14.1,18.9-21.2,27.8c-7.1,8.9-12.7,19.4-20.5,27.5
		C152.5,488.3,148.1,500.6,139,507z"/>
</g>
<g>
	<path class="st131" d="M314,534c0,9.7,1.4,19.7-5.8,26.2c-7.2,6.6-10.1,12.2-16,19C286.4,586,281.9,592,277,599
		c-6.5,9.2-5.1,25.6-5,36s-2.6,33.3,7.3,28.3c9.9-5,11.2-15.4,19-22s12-15.3,18.5-22.5s12.7-14,18.2-21.8c-5.1,5.7-10.4,14.2-18,16
		c-0.1-5.4-4.3-5.5-9-5c0-3.6-1.8-6.6,0-10c-8.4-2.2-13.1-8.5-18-14c12.1-13.9,22.7-29,34-43c6.3-6.3,11.8-15,17.3-21.7
		c5.5-6.7,15.3-13.9,16.7-22.3c2.8-16.6,0-36.1,0-53c-2.9-3.5,0.9-10.4-2-14c-1.4,3.8-1,7.9-1,12c-3.1-2.8-20.3-5.1-21,2
		c-5.6-3.2-9.8,2.5-16,2c-3.3-5-3.4-12-4-18C314,463.3,314,498.7,314,534z"/>
</g>
<g>
	<path class="st132" d="M277,599c4.9-7,9.4-13,15.2-19.8c5.9-6.8,8.8-12.4,16-19c7.2-6.6,5.8-16.5,5.8-26.2c-3.1-25,1.5-54-3-78
		c-2.7,1.6,0.6,6.4-2,8c0.2-3.5-1.7-6.4-1-10c-4-1-13.3,2.9-12-4c-4.2,3.7-7.9,1.8-12,0c-4-1.8-6.4,0.5-9-3c1.9,2.5,0.7,5.5,0,8
		c-1.2-3.2-1.7-7.5-3-11c-2.3,52.4-0.3,106.8-1,160C272.7,602.4,275.5,600.8,277,599z"/>
</g>
<g>
	<path class="st133" d="M240,450c0,11,0.7,22,0,33s1.9,23.2,0,34c3.1-10.1,0.4-22.8,1-34s0-23.7,0-35c0,0-0.7-0.2-1,0
		C240,448.5,240,449.5,240,450z"/>
</g>
<g>
	<path class="st134" d="M235,454c-9,12.8-20.2,25-29.2,37.8c-9,12.7-21.2,24.3-27.8,38.2c3,0.2,0.6,0.7,0,2c3.9,1.7,8.7,0,12.2,2.8
		c3.5,2.8,9.6-2.2,7.8,5.2c2.6-3.2,12.3-1.8,11,3c3.9-0.2,6.3,0,10,0c4.9-8,13.4-16.6,19-22c1-1.4,1.5-2.2,2-4c1.9-10.8-0.7-23,0-34
		s0-22,0-33C237.4,451.5,237,451.2,235,454z"/>
</g>
<g>
	<path class="st135" d="M358,497c-1.4,8.4-11.2,15.6-16.7,22.3c-5.5,6.7-11,15.4-17.3,21.7c-1.6,2.2-3.4,4.5-4,7
		c2.5-1.9,4.4,1.7,6,3c4.3-1.7,17.4,2.2,14,7c2.4-0.4,7.8,0.9,4,3c3.5,0.2,5.4,4.3,9,2c-1.5,11.4-12.8,21.3-17,29
		c6.6-2.7,10.3-12.4,17-17c0,0-0.2-0.6,0-1c2.1-4.3,7-8.2,10-12c-3.1,1.7-4.9,5.3-8,7c3.2-6.8,8.8-13.5,13.2-19.8s10-11.5,14.5-17.5
		c4.4-6.1,13.9-14.6,5-17.4c-9-2.8-9.4-7.7-19.7-8.3c-3.2-5.8-6.4-7.9-1.3-14.3c5.1-6.5,5.1-5.2,10-13S394.1,462,396,454
		C383.1,467.8,370.7,484.3,358,497z"/>
</g>
<g>
	<path class="st136" d="M475,494c-10.2,11.2-19,24.3-29,36c11.3-11.3,22.3-23.8,31-37C476.6,493.4,475.5,493.7,475,494z"/>
</g>
<g>
	<path class="st137" d="M470,546c1.4-1.7,3.6-3.3,5-5c10.6-12.4,20.4-26.5,32-37c1,3.1,4,4.9,5,8c0.5,0.7,1.5,1.3,2,2
		c-4.9-8.7-7.1-14.8-15.7-3.7C489.7,521.5,477.7,533,470,546z"/>
</g>
<g>
	<path class="st138" d="M475,541c1.2-1.1,2.7-2.2,4-3c0.1,4.7,3.2,9.3,7,12c-3-4.7-9.9-6.3-4.7-13.7c5.2-7.4,13.9-16.5,18.9-24.1
		c5-7.5,8.4-2.6,11.8-0.2c-1-3.1-4-4.9-5-8C495.4,514.5,485.6,528.6,475,541z"/>
</g>
<g>
	<path class="st139" d="M114,541c6.8-9.5,15.1-18.7,22-28c1.1-1.5,2-3.4,3-5c-6.3,2-8.6,11.4-13.2,15.8S116.9,535.5,114,541z"/>
</g>
<g>
	<path class="st140" d="M486,550c0.9,1.4,1.3,2.7,2,4c0.9,1.2,3.1,1.9,4,3c-1.9-3.3-5.4-6-3-10c3.2,1.2,11.5,0.8,14-3
		c4.7,4.9,11.5-4.7,15-1c-0.7-3.8,3.9-0.7,6-5c4.2,0.6,7.1,4.2,11,7c0.5-1.3-1-1.9-1-3c-6.8-9.1-13-18.9-20-28c-0.5-0.7-1.5-1.3-2-2
		c-3.3-2.3-6.7-7.3-11.8,0.2c-5,7.5-13.7,16.7-18.9,24.1C476.1,543.7,483,545.3,486,550z"/>
</g>
<g>
	<path class="st141" d="M114,541c-1.3,2.5-2.9,4.9-5,7c-2.4,3.3-4.7,6.8-7,10c-1,2.6-3.3,6.9-4,11c4.4,0.5,1.6,5.7,4,9
		c2.4,3.4,3.7,8.1,10,6c-4.2,11.6,13.5,4,12,14c3.7-1.7,4.3-6.4,8-8c6.5-6.5,12.6-15.5,18-23c1-1.3,2.1-2.7,3-4c-3,3.6-6.9,9.1-12,9
		c1.5-4.7-4.6-2.7-3-8c-4.9,1.4-6.6-2.8-8-6c-4.8,1.5-5.4-2.5-6-6c-2.7,0.5-4.6,0.8-7-1c4-4.5-1.7-1.3-4-3c5.2-11.7,14.8-20.8,22-31
		c0.6-1,1-3.9,1-4C129.1,522.3,120.8,531.5,114,541z"/>
</g>
<g>
	<path class="st142" d="M135,517c-7.2,10.2-16.8,19.3-22,31c2.3,1.7,8-1.5,4,3c2.4,1.8,4.3,1.5,7,1c0.6,3.5,1.2,7.5,6,6
		c1.4,3.2,3.1,7.4,8,6c-1.6,5.3,4.5,3.3,3,8c5.1,0.1,9-5.4,12-9c7.3-10.8,16.3-21.1,24-32c-5,3.8-6.9,9.8-14,7c-0.7-3.9,5.8-0.2,5-4
		c-5.9-4-15.1-1.5-16-10c-4.4,0.5-14.4-4.7-8-8c-2.8-0.7-4.8,1-6,3C139.1,516,135.9,516.5,135,517z"/>
</g>
<g>
	<path class="st143" d="M219,543c-8.1,13.4-20.2,25.3-29,38c-4.1-2.6-6,1.3-10,1c1.2-4.4-6.1-1.8-4-7c-2,4.1-7.3-2-8-5
		c-6.7,0.3-14-3.7-18-3c-5.4,7.5-11.5,16.5-18,23c-4.2,5.7-8.1,11.2-11.9,17.1c-3.9,5.9-10,10.4-13.3,16.7S96.2,635.2,93,640
		c-10-8.6-16.4-19.5-28-26c0.4-2.7,4.7-2.3,0-4c1.2-1.2,3.2-4.8,0-3c-15.8,20-30,41-46,61c16.3-0.9,37.2,1.2,53,0s37.9,2.3,52,0
		c14.1-2.3,15.6-18.8,24.7-27.3c9.2-8.6,14-21.3,22.6-30.5c8.6-9.1,14.1-20.4,22-30c7.9-9.6,15.5-19.4,22.5-29.5
		c7-10.1,15-19.7,22.2-29.8C232.4,526.4,223.9,535,219,543z"/>
</g>
<g>
	<path class="st144" d="M177,531c-7.7,10.9-16.7,21.2-24,32c-0.9,1.3-2,2.7-3,4c4-0.7,11.3,3.3,18,3c0.7,3,6,9.1,8,5
		c-2.1,5.2,5.2,2.6,4,7c4,0.3,5.9-3.6,10-1c8.8-12.7,20.9-24.6,29-38c-3.7,0-6.1-0.2-10,0c1.3-4.8-8.4-6.2-11-3
		c1.9-7.4-4.3-2.4-7.8-5.2c-3.5-2.8-8.3-1.1-12.2-2.8c0.6-1.3,3-1.8,0-2C177.9,530.3,177.2,530.7,177,531z"/>
</g>
<g>
	<path class="st145" d="M475,541c-1.4,1.7-3.6,3.3-5,5c-4.8,8-8.8,13-15.8,20.2c-7,7.2,0.6,14.7,5.8,21.8c9.4,13,19.3,26,29,39
		c-2.7-5.4-7.5-13.4-12-19c-7.4-9.1-16.5-19.6-19-31c4.6-2.8,12.8,0.8,13-5c6.9,3.5,14-5.5,22-7c0.1-4.1-2.5-7.4-5-11
		c-0.7-1.3-1.1-2.6-2-4c-3.8-2.7-6.9-7.3-7-12C477.7,538.8,476.2,539.9,475,541z"/>
</g>
<g>
	<path class="st146" d="M492,557c3.5,6.1,7.9,11.3,12,17c-2.4-4.5-6.5-8.2-8-13c4.8,0.4,10.5-2.5,17.1-4.9c6.6-2.4,12-3.2,18.1-6.3
		c6.2-3.1,9.2,4.8,14.8,9.2c-2-2.5-4-6.2-6-9c-1.9-2.8-4.1-5.4-6-8c0,1.1,1.5,1.7,1,3c-3.9-2.8-6.8-6.4-11-7c-2.1,4.3-6.7,1.2-6,5
		c-3.5-3.7-10.3,5.9-15,1c-2.5,3.8-10.8,4.2-14,3C486.6,551,490.1,553.7,492,557z"/>
</g>
<g>
	<path class="st147" d="M335,597c6.3-7.1,12.2-14.5,18-22c-6.7,4.6-10.4,14.3-17,17c4.2-7.7,15.5-17.6,17-29c-3.6,2.3-5.5-1.8-9-2
		c3.8-2.1-1.6-3.4-4-3c3.4-4.8-9.7-8.7-14-7c-1.6-1.3-3.5-4.9-6-3c0.6-2.5,2.4-4.8,4-7c-11.3,14-21.9,29.1-34,43
		c4.9,5.5,9.6,11.8,18,14c-1.8,3.4,0,6.4,0,10c4.7-0.5,8.9-0.4,9,5C324.6,611.2,329.9,602.7,335,597z"/>
</g>
<g>
	<path class="st148" d="M90,572c3.5-4.8,8.6-9.2,12-14c2.3-3.2,4.6-6.7,7-10C101.7,555.3,94.2,562.7,90,572z"/>
</g>
<g>
	<path class="st149" d="M504,574c0.7,1.3,1.1,3.8,2,5c6.1,8.5,13.1,16.2,19,25c2.8,4.1,6.7,8.3,9,13c-4.6,1.7-8.3,6.2-14,5
		c-3.5,9.2-16.8,6.9-22,14c5.2,10.2,17.1,20.6,20,31c6.7,4,17.8,0.1,26,1s19.5,0,28,0c-13.4-15.8-22.8-34.9-36-51
		c-6.7-8.2-14-17.3-18-27c3.5,1,6.5-0.1,10-1c-2.4-6.6,4.7-2.5,4-7c7.3,4.3,15-2.5,20-7c2.6,0.7,2.3,4.3,6,2c1.7,3.4,6.3,9.7,9,10
		c-6.5-9.3-12.7-20.4-21-28c-5.6-4.5-8.6-12.3-14.8-9.2c-6.1,3-11.5,3.9-18.1,6.3c-6.6,2.4-12.3,5.3-17.1,4.9
		C497.5,565.8,501.6,569.5,504,574z"/>
</g>
<g>
	<path class="st150" d="M546,559c8.3,7.6,14.5,18.7,21,28c7.7,11.2,16.9,26.8,27,36c0.3,0.2,1.8,0.8,2,1
		c-7.5-13.4-19.5-24.3-27.7-37.3c-8.2-13-18.2-25.1-28.3-36.7C542,552.8,544,556.5,546,559z"/>
</g>
<g>
	<path class="st151" d="M477,608c-2.2-3.5-8.3-12.2-1-13c7.3-0.8,12.1-0.9,16.7-5.3c4.6-4.4,8.5-6.2,14.2-7.8c0.5-1.3-1-1.9-1-3
		c-0.9-1.2-1.3-3.7-2-5c-4.1-5.7-8.5-10.9-12-17c-0.9-1.1-3.1-1.8-4-3c2.5,3.6,5.1,6.9,5,11c-8,1.5-15.1,10.5-22,7
		c-0.2,5.8-8.4,2.2-13,5C460.5,588.4,469.6,598.9,477,608z"/>
</g>
<g>
	<path class="st152" d="M90,572c-5.6,12.6-17.1,23.5-25,35c3.2-1.8,1.2,1.8,0,3c4.7,1.7,0.4,1.3,0,4c11.6,6.5,18,17.4,28,26
		c3.2-4.8,10.4-10,13.8-16.2s9.5-10.8,13.3-16.7c3.8-5.9,7.7-11.4,11.9-17.1c-3.7,1.6-4.3,6.3-8,8c1.5-10-16.2-2.4-12-14
		c-6.4,2.1-7.6-2.6-10-6c-2.4-3.4,0.5-8.5-4-9c0.7-4.1,3-8.4,4-11C98.6,562.8,93.5,567.2,90,572z"/>
</g>
<g>
	<path class="st153" d="M536,617c-0.7-2.2-0.6-3.2,1-5c11.2,5.1,20-11.6,32-8c0.3-2.7,2.3-5.2,4-7c6,9,13.2,18.3,21,26
		c-10.1-9.2-19.3-24.8-27-36c-2.7-0.3-7.3-6.6-9-10c-3.7,2.3-3.4-1.3-6-2c-5,4.5-12.7,11.3-20,7c0.7,4.5-6.4,0.4-4,7
		c-3.5,0.9-6.5,2-10,1C522,599.7,529.3,608.8,536,617z"/>
</g>
<g>
	<path class="st154" d="M477,608c4.5,5.6,9.3,13.6,12,19c1.5,2,2.6,4.1,4,6c0.4,1-4.5-11.1-4-15c3,4.2,3.8-2.4,8.1-2.9
		c4.2-0.5,7.9-4.4,12.9-3.1c0.2-6.9,9.7-2.1,10-8c2.2-0.5,5,2.9,5,0c-5.9-8.8-12.9-16.5-19-25c0,1.1,1.5,1.7,1,3
		c-5.7,1.6-9.6,3.4-14.2,7.8c-4.6,4.3-9.4,4.4-16.7,5.3C468.7,595.8,474.8,604.5,477,608z"/>
</g>
<g>
	<path class="st155" d="M602,633c8.6,11.5,17.2,23.2,25,35c-18.3,0-36.7,0-55,0c-8.5,0-19.8,0.9-28,0s-19.3,3-26-1
		c-5.2-3.1-7.7-12.1-12.2-16.8c-4.6-4.6-8.8-11.9-12.8-17.2c-1.4-1.9-2.5-4-4-6c-9.7-13-19.6-26-29-39c5.4,10,13.2,19.8,20.2,29.8
		c7,9.9,13.3,18.6,21.5,28.5c8.2,9.9,11.5,24.4,27.3,22.7s33.9,0.9,50,0s32.8,0.7,49,0C621.1,656.7,612.3,643.3,602,633z"/>
</g>
<g>
	<path class="st156" d="M536,617c13.2,16.1,22.6,35.2,36,51c18.3,0,36.7,0,55,0c-7.8-11.8-16.4-23.5-25-35c-2.7-2.7-4.3-6-6-9
		c-0.2-0.2-1.7-0.8-2-1c-7.8-7.7-15-17-21-26c-1.7,1.8-3.7,4.3-4,7c-12-3.6-20.8,13.1-32,8C535.4,613.8,535.3,614.8,536,617z"/>
</g>
<g>
	<path class="st157" d="M493,633c4,5.3,8.2,12.6,12.8,17.2c4.6,4.6,7,13.6,12.2,16.8c-2.9-10.4-14.8-20.8-20-31
		c5.2-7.1,18.5-4.8,22-14c5.7,1.2,9.4-3.3,14-5c-2.3-4.7-6.2-8.9-9-13c0,2.9-2.8-0.5-5,0c-0.3,5.9-9.8,1.1-10,8
		c-5-1.3-8.7,2.6-12.9,3.1c-4.3,0.5-5.1,7.2-8.1,2.9C488.5,621.9,493.4,634,493,633z"/>
</g>
<g>
	<path class="st158" d="M270,668c0,0,0.5,0,1,0c1.8-19.8,0.9-42.9-1-62C270,626.4,268.2,647.7,270,668z"/>
</g>
</svg>
